<?xml version="1.0" encoding="utf-8" ?>
<!DOCTYPE svg PUBLIC "-//W3C//DTD SVG 1.1//EN" "http://www.w3.org/Graphics/SVG/1.1/DTD/svg11.dtd">
<svg height="500" version="1.1" width="892" xmlns="http://www.w3.org/2000/svg">
<rect fill="#ffffff" height="472" stroke="#ffffff" stroke-width="1" width="752" x="126" y="14"/>
<rect fill="none" height="472" stroke="#000000" stroke-width="1" width="752" x="126" y="14"/>
<line fill="#000000" stroke="#000000" stroke-width="1" x1="281" x2="281" y1="111" y2="116"/>
<line fill="#000000" stroke="#000000" stroke-width="1" x1="281" x2="281" y1="121" y2="126"/>
<line fill="#000000" stroke="#000000" stroke-width="1" x1="281" x2="281" y1="131" y2="136"/>
<line fill="#000000" stroke="#000000" stroke-width="1" x1="281" x2="281" y1="141" y2="146"/>
<line fill="#000000" stroke="#000000" stroke-width="1" x1="281" x2="281" y1="151" y2="156"/>
<line fill="#000000" stroke="#000000" stroke-width="1" x1="281" x2="281" y1="161" y2="166"/>
<line fill="#000000" stroke="#000000" stroke-width="1" x1="281" x2="281" y1="171" y2="176"/>
<line fill="#000000" stroke="#000000" stroke-width="1" x1="281" x2="281" y1="181" y2="186"/>
<line fill="#000000" stroke="#000000" stroke-width="1" x1="281" x2="281" y1="191" y2="196"/>
<line fill="#000000" stroke="#000000" stroke-width="1" x1="281" x2="281" y1="201" y2="206"/>
<line fill="#000000" stroke="#000000" stroke-width="1" x1="281" x2="281" y1="211" y2="216"/>
<line fill="#000000" stroke="#000000" stroke-width="1" x1="281" x2="281" y1="221" y2="226"/>
<line fill="#000000" stroke="#000000" stroke-width="1" x1="281" x2="281" y1="231" y2="236"/>
<line fill="#000000" stroke="#000000" stroke-width="1" x1="281" x2="281" y1="241" y2="246"/>
<line fill="#000000" stroke="#000000" stroke-width="1" x1="281" x2="281" y1="251" y2="256"/>
<line fill="#000000" stroke="#000000" stroke-width="1" x1="281" x2="281" y1="261" y2="266"/>
<line fill="#000000" stroke="#000000" stroke-width="1" x1="281" x2="281" y1="271" y2="276"/>
<line fill="#000000" stroke="#000000" stroke-width="1" x1="281" x2="281" y1="281" y2="286"/>
<line fill="#000000" stroke="#000000" stroke-width="1" x1="281" x2="281" y1="291" y2="296"/>
<line fill="#000000" stroke="#000000" stroke-width="1" x1="281" x2="281" y1="301" y2="306"/>
<line fill="#000000" stroke="#000000" stroke-width="1" x1="281" x2="281" y1="311" y2="316"/>
<line fill="#000000" stroke="#000000" stroke-width="1" x1="281" x2="281" y1="321" y2="326"/>
<line fill="#000000" stroke="#000000" stroke-width="1" x1="281" x2="281" y1="331" y2="336"/>
<line fill="#000000" stroke="#000000" stroke-width="1" x1="281" x2="281" y1="341" y2="346"/>
<line fill="#000000" stroke="#000000" stroke-width="1" x1="281" x2="281" y1="351" y2="356"/>
<line fill="#000000" stroke="#000000" stroke-width="1" x1="281" x2="281" y1="361" y2="366"/>
<line fill="#000000" stroke="#000000" stroke-width="1" x1="281" x2="281" y1="371" y2="376"/>
<line fill="#000000" stroke="#000000" stroke-width="1" x1="281" x2="281" y1="381" y2="386"/>
<line fill="#000000" stroke="#000000" stroke-width="1" x1="281" x2="281" y1="391" y2="396"/>
<line fill="#000000" stroke="#000000" stroke-width="1" x1="281" x2="281" y1="401" y2="406"/>
<line fill="#000000" stroke="#000000" stroke-width="1" x1="281" x2="281" y1="411" y2="416"/>
<line fill="#000000" stroke="#000000" stroke-width="1" x1="281" x2="281" y1="421" y2="426"/>
<line fill="#000000" stroke="#000000" stroke-width="1" x1="281" x2="281" y1="431" y2="436"/>
<rect fill="#ffffff" height="330" stroke="#ffffff" stroke-width="1" width="20" x="271" y="111"/>
<rect fill="none" height="330" stroke="#000000" stroke-width="1" width="20" x="271" y="111"/>
<rect fill="#ffffff" height="50" stroke="#ffffff" stroke-width="1" width="150" x="206" y="62"/>
<rect fill="none" height="50" stroke="#000000" stroke-width="1" width="150" x="206" y="62"/>
<text font-family="Dialog" font-size="12" x="239" y="75">
:ImageViewer</text>
<line fill="#000000" stroke="#000000" stroke-width="1" x1="710" x2="710" y1="111" y2="116"/>
<line fill="#000000" stroke="#000000" stroke-width="1" x1="710" x2="710" y1="121" y2="126"/>
<line fill="#000000" stroke="#000000" stroke-width="1" x1="710" x2="710" y1="131" y2="136"/>
<line fill="#000000" stroke="#000000" stroke-width="1" x1="710" x2="710" y1="141" y2="146"/>
<line fill="#000000" stroke="#000000" stroke-width="1" x1="710" x2="710" y1="151" y2="156"/>
<line fill="#000000" stroke="#000000" stroke-width="1" x1="710" x2="710" y1="161" y2="166"/>
<line fill="#000000" stroke="#000000" stroke-width="1" x1="710" x2="710" y1="171" y2="176"/>
<line fill="#000000" stroke="#000000" stroke-width="1" x1="710" x2="710" y1="181" y2="186"/>
<line fill="#000000" stroke="#000000" stroke-width="1" x1="710" x2="710" y1="191" y2="196"/>
<line fill="#000000" stroke="#000000" stroke-width="1" x1="710" x2="710" y1="201" y2="206"/>
<line fill="#000000" stroke="#000000" stroke-width="1" x1="710" x2="710" y1="211" y2="216"/>
<line fill="#000000" stroke="#000000" stroke-width="1" x1="710" x2="710" y1="221" y2="226"/>
<line fill="#000000" stroke="#000000" stroke-width="1" x1="710" x2="710" y1="231" y2="236"/>
<line fill="#000000" stroke="#000000" stroke-width="1" x1="710" x2="710" y1="241" y2="246"/>
<line fill="#000000" stroke="#000000" stroke-width="1" x1="710" x2="710" y1="251" y2="256"/>
<line fill="#000000" stroke="#000000" stroke-width="1" x1="710" x2="710" y1="261" y2="266"/>
<line fill="#000000" stroke="#000000" stroke-width="1" x1="710" x2="710" y1="271" y2="276"/>
<line fill="#000000" stroke="#000000" stroke-width="1" x1="710" x2="710" y1="281" y2="286"/>
<line fill="#000000" stroke="#000000" stroke-width="1" x1="710" x2="710" y1="291" y2="296"/>
<line fill="#000000" stroke="#000000" stroke-width="1" x1="710" x2="710" y1="301" y2="306"/>
<line fill="#000000" stroke="#000000" stroke-width="1" x1="710" x2="710" y1="311" y2="316"/>
<line fill="#000000" stroke="#000000" stroke-width="1" x1="710" x2="710" y1="321" y2="326"/>
<line fill="#000000" stroke="#000000" stroke-width="1" x1="710" x2="710" y1="331" y2="336"/>
<line fill="#000000" stroke="#000000" stroke-width="1" x1="710" x2="710" y1="341" y2="346"/>
<line fill="#000000" stroke="#000000" stroke-width="1" x1="710" x2="710" y1="351" y2="356"/>
<line fill="#000000" stroke="#000000" stroke-width="1" x1="710" x2="710" y1="361" y2="366"/>
<line fill="#000000" stroke="#000000" stroke-width="1" x1="710" x2="710" y1="371" y2="376"/>
<line fill="#000000" stroke="#000000" stroke-width="1" x1="710" x2="710" y1="381" y2="386"/>
<line fill="#000000" stroke="#000000" stroke-width="1" x1="710" x2="710" y1="391" y2="396"/>
<line fill="#000000" stroke="#000000" stroke-width="1" x1="710" x2="710" y1="401" y2="406"/>
<line fill="#000000" stroke="#000000" stroke-width="1" x1="710" x2="710" y1="411" y2="416"/>
<line fill="#000000" stroke="#000000" stroke-width="1" x1="710" x2="710" y1="421" y2="426"/>
<line fill="#000000" stroke="#000000" stroke-width="1" x1="710" x2="710" y1="431" y2="436"/>
<line fill="#000000" stroke="#000000" stroke-width="1" x1="710" x2="710" y1="441" y2="443"/>
<rect fill="#ffffff" height="332" stroke="#ffffff" stroke-width="1" width="20" x="700" y="111"/>
<rect fill="none" height="332" stroke="#000000" stroke-width="1" width="20" x="700" y="111"/>
<rect fill="#ffffff" height="50" stroke="#ffffff" stroke-width="1" width="128" x="646" y="62"/>
<rect fill="none" height="50" stroke="#000000" stroke-width="1" width="128" x="646" y="62"/>
<text font-family="Dialog" font-size="12" x="699" y="75">
:Pic</text>
<line fill="#000000" stroke="#000000" stroke-width="1" x1="497" x2="497" y1="111" y2="116"/>
<line fill="#000000" stroke="#000000" stroke-width="1" x1="497" x2="497" y1="121" y2="126"/>
<line fill="#000000" stroke="#000000" stroke-width="1" x1="497" x2="497" y1="131" y2="136"/>
<line fill="#000000" stroke="#000000" stroke-width="1" x1="497" x2="497" y1="141" y2="146"/>
<line fill="#000000" stroke="#000000" stroke-width="1" x1="497" x2="497" y1="151" y2="156"/>
<line fill="#000000" stroke="#000000" stroke-width="1" x1="497" x2="497" y1="161" y2="166"/>
<line fill="#000000" stroke="#000000" stroke-width="1" x1="497" x2="497" y1="171" y2="176"/>
<line fill="#000000" stroke="#000000" stroke-width="1" x1="497" x2="497" y1="181" y2="186"/>
<line fill="#000000" stroke="#000000" stroke-width="1" x1="497" x2="497" y1="191" y2="196"/>
<line fill="#000000" stroke="#000000" stroke-width="1" x1="497" x2="497" y1="201" y2="206"/>
<line fill="#000000" stroke="#000000" stroke-width="1" x1="497" x2="497" y1="211" y2="216"/>
<line fill="#000000" stroke="#000000" stroke-width="1" x1="497" x2="497" y1="221" y2="226"/>
<line fill="#000000" stroke="#000000" stroke-width="1" x1="497" x2="497" y1="231" y2="236"/>
<line fill="#000000" stroke="#000000" stroke-width="1" x1="497" x2="497" y1="241" y2="246"/>
<line fill="#000000" stroke="#000000" stroke-width="1" x1="497" x2="497" y1="251" y2="256"/>
<line fill="#000000" stroke="#000000" stroke-width="1" x1="497" x2="497" y1="261" y2="266"/>
<line fill="#000000" stroke="#000000" stroke-width="1" x1="497" x2="497" y1="271" y2="276"/>
<line fill="#000000" stroke="#000000" stroke-width="1" x1="497" x2="497" y1="281" y2="286"/>
<line fill="#000000" stroke="#000000" stroke-width="1" x1="497" x2="497" y1="291" y2="296"/>
<line fill="#000000" stroke="#000000" stroke-width="1" x1="497" x2="497" y1="301" y2="306"/>
<line fill="#000000" stroke="#000000" stroke-width="1" x1="497" x2="497" y1="311" y2="316"/>
<line fill="#000000" stroke="#000000" stroke-width="1" x1="497" x2="497" y1="321" y2="326"/>
<line fill="#000000" stroke="#000000" stroke-width="1" x1="497" x2="497" y1="331" y2="336"/>
<line fill="#000000" stroke="#000000" stroke-width="1" x1="497" x2="497" y1="341" y2="346"/>
<line fill="#000000" stroke="#000000" stroke-width="1" x1="497" x2="497" y1="351" y2="356"/>
<line fill="#000000" stroke="#000000" stroke-width="1" x1="497" x2="497" y1="361" y2="366"/>
<line fill="#000000" stroke="#000000" stroke-width="1" x1="497" x2="497" y1="371" y2="376"/>
<line fill="#000000" stroke="#000000" stroke-width="1" x1="497" x2="497" y1="381" y2="386"/>
<line fill="#000000" stroke="#000000" stroke-width="1" x1="497" x2="497" y1="391" y2="396"/>
<line fill="#000000" stroke="#000000" stroke-width="1" x1="497" x2="497" y1="401" y2="406"/>
<line fill="#000000" stroke="#000000" stroke-width="1" x1="497" x2="497" y1="411" y2="416"/>
<line fill="#000000" stroke="#000000" stroke-width="1" x1="497" x2="497" y1="421" y2="426"/>
<line fill="#000000" stroke="#000000" stroke-width="1" x1="497" x2="497" y1="431" y2="436"/>
<line fill="#000000" stroke="#000000" stroke-width="1" x1="497" x2="497" y1="441" y2="443"/>
<rect fill="#ffffff" height="332" stroke="#ffffff" stroke-width="1" width="20" x="487" y="111"/>
<rect fill="none" height="332" stroke="#000000" stroke-width="1" width="20" x="487" y="111"/>
<rect fill="#ffffff" height="50" stroke="#ffffff" stroke-width="1" width="150" x="422" y="62"/>
<rect fill="none" height="50" stroke="#000000" stroke-width="1" width="150" x="422" y="62"/>
<text font-family="Dialog" font-size="12" x="448" y="75">
:InteractionTool</text>
<polyline fill="none" points="291,158 487,158" stroke="#000000" stroke-width="1"/>
<line fill="#000000" stroke="#000000" stroke-width="1" x1="475" x2="487" y1="165" y2="158"/>
<line fill="#000000" stroke="#000000" stroke-width="1" x1="475" x2="487" y1="151" y2="158"/>
<text font-family="Dialog" font-size="12" x="343" y="153">
getPicture()</text>
<line fill="#000000" stroke="#000000" stroke-width="1" x1="487" x2="482" y1="214" y2="214"/>
<line fill="#000000" stroke="#000000" stroke-width="1" x1="477" x2="472" y1="214" y2="214"/>
<line fill="#000000" stroke="#000000" stroke-width="1" x1="467" x2="462" y1="214" y2="214"/>
<line fill="#000000" stroke="#000000" stroke-width="1" x1="457" x2="452" y1="214" y2="214"/>
<line fill="#000000" stroke="#000000" stroke-width="1" x1="447" x2="442" y1="214" y2="214"/>
<line fill="#000000" stroke="#000000" stroke-width="1" x1="437" x2="432" y1="214" y2="214"/>
<line fill="#000000" stroke="#000000" stroke-width="1" x1="427" x2="422" y1="214" y2="214"/>
<line fill="#000000" stroke="#000000" stroke-width="1" x1="417" x2="412" y1="214" y2="214"/>
<line fill="#000000" stroke="#000000" stroke-width="1" x1="407" x2="402" y1="214" y2="214"/>
<line fill="#000000" stroke="#000000" stroke-width="1" x1="397" x2="392" y1="214" y2="214"/>
<line fill="#000000" stroke="#000000" stroke-width="1" x1="387" x2="382" y1="214" y2="214"/>
<line fill="#000000" stroke="#000000" stroke-width="1" x1="377" x2="372" y1="214" y2="214"/>
<line fill="#000000" stroke="#000000" stroke-width="1" x1="367" x2="362" y1="214" y2="214"/>
<line fill="#000000" stroke="#000000" stroke-width="1" x1="357" x2="352" y1="214" y2="214"/>
<line fill="#000000" stroke="#000000" stroke-width="1" x1="347" x2="342" y1="214" y2="214"/>
<line fill="#000000" stroke="#000000" stroke-width="1" x1="337" x2="332" y1="214" y2="214"/>
<line fill="#000000" stroke="#000000" stroke-width="1" x1="327" x2="322" y1="214" y2="214"/>
<line fill="#000000" stroke="#000000" stroke-width="1" x1="317" x2="312" y1="214" y2="214"/>
<line fill="#000000" stroke="#000000" stroke-width="1" x1="307" x2="302" y1="214" y2="214"/>
<line fill="#000000" stroke="#000000" stroke-width="1" x1="297" x2="292" y1="214" y2="214"/>
<line fill="#000000" stroke="#000000" stroke-width="1" x1="303" x2="291" y1="207" y2="214"/>
<line fill="#000000" stroke="#000000" stroke-width="1" x1="303" x2="291" y1="221" y2="214"/>
<text font-family="Dialog" font-size="12" x="345" y="209">
picture()</text>
<polyline fill="none" points="291,270 700,270" stroke="#000000" stroke-width="1"/>
<line fill="#000000" stroke="#000000" stroke-width="1" x1="688" x2="700" y1="277" y2="270"/>
<line fill="#000000" stroke="#000000" stroke-width="1" x1="688" x2="700" y1="263" y2="270"/>
<text font-family="Dialog" font-size="12" x="451" y="265">
makeShaped()</text>
<line fill="#000000" stroke="#000000" stroke-width="1" x1="700" x2="695" y1="350" y2="350"/>
<line fill="#000000" stroke="#000000" stroke-width="1" x1="690" x2="685" y1="350" y2="350"/>
<line fill="#000000" stroke="#000000" stroke-width="1" x1="680" x2="675" y1="350" y2="350"/>
<line fill="#000000" stroke="#000000" stroke-width="1" x1="670" x2="665" y1="350" y2="350"/>
<line fill="#000000" stroke="#000000" stroke-width="1" x1="660" x2="655" y1="350" y2="350"/>
<line fill="#000000" stroke="#000000" stroke-width="1" x1="650" x2="645" y1="350" y2="350"/>
<line fill="#000000" stroke="#000000" stroke-width="1" x1="640" x2="635" y1="350" y2="350"/>
<line fill="#000000" stroke="#000000" stroke-width="1" x1="630" x2="625" y1="350" y2="350"/>
<line fill="#000000" stroke="#000000" stroke-width="1" x1="620" x2="615" y1="350" y2="350"/>
<line fill="#000000" stroke="#000000" stroke-width="1" x1="610" x2="605" y1="350" y2="350"/>
<line fill="#000000" stroke="#000000" stroke-width="1" x1="600" x2="595" y1="350" y2="350"/>
<line fill="#000000" stroke="#000000" stroke-width="1" x1="590" x2="585" y1="350" y2="350"/>
<line fill="#000000" stroke="#000000" stroke-width="1" x1="580" x2="575" y1="350" y2="350"/>
<line fill="#000000" stroke="#000000" stroke-width="1" x1="570" x2="565" y1="350" y2="350"/>
<line fill="#000000" stroke="#000000" stroke-width="1" x1="560" x2="555" y1="350" y2="350"/>
<line fill="#000000" stroke="#000000" stroke-width="1" x1="550" x2="545" y1="350" y2="350"/>
<line fill="#000000" stroke="#000000" stroke-width="1" x1="540" x2="535" y1="350" y2="350"/>
<line fill="#000000" stroke="#000000" stroke-width="1" x1="530" x2="525" y1="350" y2="350"/>
<line fill="#000000" stroke="#000000" stroke-width="1" x1="520" x2="515" y1="350" y2="350"/>
<line fill="#000000" stroke="#000000" stroke-width="1" x1="510" x2="505" y1="350" y2="350"/>
<line fill="#000000" stroke="#000000" stroke-width="1" x1="500" x2="495" y1="350" y2="350"/>
<line fill="#000000" stroke="#000000" stroke-width="1" x1="490" x2="485" y1="350" y2="350"/>
<line fill="#000000" stroke="#000000" stroke-width="1" x1="480" x2="475" y1="350" y2="350"/>
<line fill="#000000" stroke="#000000" stroke-width="1" x1="470" x2="465" y1="350" y2="350"/>
<line fill="#000000" stroke="#000000" stroke-width="1" x1="460" x2="455" y1="350" y2="350"/>
<line fill="#000000" stroke="#000000" stroke-width="1" x1="450" x2="445" y1="350" y2="350"/>
<line fill="#000000" stroke="#000000" stroke-width="1" x1="440" x2="435" y1="350" y2="350"/>
<line fill="#000000" stroke="#000000" stroke-width="1" x1="430" x2="425" y1="350" y2="350"/>
<line fill="#000000" stroke="#000000" stroke-width="1" x1="420" x2="415" y1="350" y2="350"/>
<line fill="#000000" stroke="#000000" stroke-width="1" x1="410" x2="405" y1="350" y2="350"/>
<line fill="#000000" stroke="#000000" stroke-width="1" x1="400" x2="395" y1="350" y2="350"/>
<line fill="#000000" stroke="#000000" stroke-width="1" x1="390" x2="385" y1="350" y2="350"/>
<line fill="#000000" stroke="#000000" stroke-width="1" x1="380" x2="375" y1="350" y2="350"/>
<line fill="#000000" stroke="#000000" stroke-width="1" x1="370" x2="365" y1="350" y2="350"/>
<line fill="#000000" stroke="#000000" stroke-width="1" x1="360" x2="355" y1="350" y2="350"/>
<line fill="#000000" stroke="#000000" stroke-width="1" x1="350" x2="345" y1="350" y2="350"/>
<line fill="#000000" stroke="#000000" stroke-width="1" x1="340" x2="335" y1="350" y2="350"/>
<line fill="#000000" stroke="#000000" stroke-width="1" x1="330" x2="325" y1="350" y2="350"/>
<line fill="#000000" stroke="#000000" stroke-width="1" x1="320" x2="315" y1="350" y2="350"/>
<line fill="#000000" stroke="#000000" stroke-width="1" x1="310" x2="305" y1="350" y2="350"/>
<line fill="#000000" stroke="#000000" stroke-width="1" x1="300" x2="295" y1="350" y2="350"/>
<line fill="#000000" stroke="#000000" stroke-width="1" x1="303" x2="291" y1="343" y2="350"/>
<line fill="#000000" stroke="#000000" stroke-width="1" x1="303" x2="291" y1="357" y2="350"/>
<polygon fill="#ffffff" points="126,14 198,14 208,24 208,53 126,53 126,14" stroke="#ffffff" stroke-width="1"/>
<polyline fill="none" points="126,14 198,14 208,24 208,53 126,53 126,14" stroke="#000000" stroke-width="1"/>
<polygon fill="#b2b2b2" points="198,14 208,24 198,24 198,14" stroke="#b2b2b2" stroke-width="1"/>
<polyline fill="none" points="198,14 208,24 198,24 198,14" stroke="#000000" stroke-width="1"/>
<text font-family="Dialog" font-size="12" x="129" y="29">
IntelliPhoto</text>
<polygon fill="#ffffff" points="14,102 91,102 101,112 101,160 14,160 14,102" stroke="#ffffff" stroke-width="1"/>
<polyline fill="none" points="14,102 91,102 101,112 101,160 14,160 14,102" stroke="#000000" stroke-width="1"/>
<polygon fill="#b2b2b2" points="91,102 101,112 91,112 91,102" stroke="#b2b2b2" stroke-width="1"/>
<polyline fill="none" points="91,102 101,112 91,112 91,102" stroke="#000000" stroke-width="1"/>
<text font-family="Dialog" font-size="12" x="17" y="117">
anonymous</text>
<text font-family="Dialog" font-size="12" x="17" y="132">
User</text>
<polygon fill="#ffffff" points="14,358 91,358 101,368 101,416 14,416 14,358" stroke="#ffffff" stroke-width="1"/>
<polyline fill="none" points="14,358 91,358 101,368 101,416 14,416 14,358" stroke="#000000" stroke-width="1"/>
<polygon fill="#b2b2b2" points="91,358 101,368 91,368 91,358" stroke="#b2b2b2" stroke-width="1"/>
<polyline fill="none" points="91,358 101,368 91,368 91,358" stroke="#000000" stroke-width="1"/>
<text font-family="Dialog" font-size="12" x="17" y="373">
anonymous</text>
<text font-family="Dialog" font-size="12" x="17" y="388">
user</text>
<line fill="#000000" stroke="#000000" stroke-width="1" x1="270" x2="102" y1="390" y2="390"/>
<line fill="#000000" stroke="#000000" stroke-width="1" x1="270" x2="102" y1="134" y2="134"/>
<line fill="#000000" stroke="#000000" stroke-width="1" x1="270" x2="254" y1="134" y2="118"/>
<line fill="#000000" stroke="#000000" stroke-width="1" x1="270" x2="254" y1="134" y2="150"/>
<line fill="#000000" stroke="#000000" stroke-width="1" x1="102" x2="118" y1="390" y2="406"/>
<line fill="#000000" stroke="#000000" stroke-width="1" x1="102" x2="118" y1="390" y2="374"/>
</svg>
