<?xml version="1.0" encoding="utf-8" ?>
<!DOCTYPE svg PUBLIC "-//W3C//DTD SVG 1.1//EN" "http://www.w3.org/Graphics/SVG/1.1/DTD/svg11.dtd">
<svg height="684" version="1.1" width="1284" xmlns="http://www.w3.org/2000/svg">
<rect fill="#ffffff" height="656" stroke="#ffffff" stroke-width="1" width="1144" x="126" y="14"/>
<rect fill="none" height="656" stroke="#000000" stroke-width="1" width="1144" x="126" y="14"/>
<line fill="#000000" stroke="#000000" stroke-width="1" x1="282" x2="282" y1="119" y2="124"/>
<line fill="#000000" stroke="#000000" stroke-width="1" x1="282" x2="282" y1="129" y2="134"/>
<line fill="#000000" stroke="#000000" stroke-width="1" x1="282" x2="282" y1="139" y2="144"/>
<line fill="#000000" stroke="#000000" stroke-width="1" x1="282" x2="282" y1="149" y2="154"/>
<line fill="#000000" stroke="#000000" stroke-width="1" x1="282" x2="282" y1="159" y2="164"/>
<line fill="#000000" stroke="#000000" stroke-width="1" x1="282" x2="282" y1="169" y2="174"/>
<line fill="#000000" stroke="#000000" stroke-width="1" x1="282" x2="282" y1="179" y2="184"/>
<line fill="#000000" stroke="#000000" stroke-width="1" x1="282" x2="282" y1="189" y2="194"/>
<line fill="#000000" stroke="#000000" stroke-width="1" x1="282" x2="282" y1="199" y2="204"/>
<line fill="#000000" stroke="#000000" stroke-width="1" x1="282" x2="282" y1="209" y2="214"/>
<line fill="#000000" stroke="#000000" stroke-width="1" x1="282" x2="282" y1="219" y2="224"/>
<line fill="#000000" stroke="#000000" stroke-width="1" x1="282" x2="282" y1="229" y2="234"/>
<line fill="#000000" stroke="#000000" stroke-width="1" x1="282" x2="282" y1="239" y2="244"/>
<line fill="#000000" stroke="#000000" stroke-width="1" x1="282" x2="282" y1="249" y2="254"/>
<line fill="#000000" stroke="#000000" stroke-width="1" x1="282" x2="282" y1="259" y2="264"/>
<line fill="#000000" stroke="#000000" stroke-width="1" x1="282" x2="282" y1="269" y2="274"/>
<line fill="#000000" stroke="#000000" stroke-width="1" x1="282" x2="282" y1="279" y2="284"/>
<line fill="#000000" stroke="#000000" stroke-width="1" x1="282" x2="282" y1="289" y2="294"/>
<line fill="#000000" stroke="#000000" stroke-width="1" x1="282" x2="282" y1="299" y2="304"/>
<line fill="#000000" stroke="#000000" stroke-width="1" x1="282" x2="282" y1="309" y2="314"/>
<line fill="#000000" stroke="#000000" stroke-width="1" x1="282" x2="282" y1="319" y2="324"/>
<line fill="#000000" stroke="#000000" stroke-width="1" x1="282" x2="282" y1="329" y2="334"/>
<line fill="#000000" stroke="#000000" stroke-width="1" x1="282" x2="282" y1="339" y2="344"/>
<line fill="#000000" stroke="#000000" stroke-width="1" x1="282" x2="282" y1="349" y2="354"/>
<line fill="#000000" stroke="#000000" stroke-width="1" x1="282" x2="282" y1="359" y2="364"/>
<line fill="#000000" stroke="#000000" stroke-width="1" x1="282" x2="282" y1="369" y2="374"/>
<line fill="#000000" stroke="#000000" stroke-width="1" x1="282" x2="282" y1="379" y2="384"/>
<line fill="#000000" stroke="#000000" stroke-width="1" x1="282" x2="282" y1="389" y2="394"/>
<line fill="#000000" stroke="#000000" stroke-width="1" x1="282" x2="282" y1="399" y2="404"/>
<line fill="#000000" stroke="#000000" stroke-width="1" x1="282" x2="282" y1="409" y2="414"/>
<line fill="#000000" stroke="#000000" stroke-width="1" x1="282" x2="282" y1="419" y2="424"/>
<line fill="#000000" stroke="#000000" stroke-width="1" x1="282" x2="282" y1="429" y2="434"/>
<line fill="#000000" stroke="#000000" stroke-width="1" x1="282" x2="282" y1="439" y2="444"/>
<line fill="#000000" stroke="#000000" stroke-width="1" x1="282" x2="282" y1="449" y2="454"/>
<line fill="#000000" stroke="#000000" stroke-width="1" x1="282" x2="282" y1="459" y2="464"/>
<line fill="#000000" stroke="#000000" stroke-width="1" x1="282" x2="282" y1="469" y2="474"/>
<line fill="#000000" stroke="#000000" stroke-width="1" x1="282" x2="282" y1="479" y2="484"/>
<line fill="#000000" stroke="#000000" stroke-width="1" x1="282" x2="282" y1="489" y2="494"/>
<line fill="#000000" stroke="#000000" stroke-width="1" x1="282" x2="282" y1="499" y2="504"/>
<line fill="#000000" stroke="#000000" stroke-width="1" x1="282" x2="282" y1="509" y2="514"/>
<line fill="#000000" stroke="#000000" stroke-width="1" x1="282" x2="282" y1="519" y2="524"/>
<line fill="#000000" stroke="#000000" stroke-width="1" x1="282" x2="282" y1="529" y2="534"/>
<line fill="#000000" stroke="#000000" stroke-width="1" x1="282" x2="282" y1="539" y2="544"/>
<line fill="#000000" stroke="#000000" stroke-width="1" x1="282" x2="282" y1="549" y2="554"/>
<line fill="#000000" stroke="#000000" stroke-width="1" x1="282" x2="282" y1="559" y2="564"/>
<line fill="#000000" stroke="#000000" stroke-width="1" x1="282" x2="282" y1="569" y2="574"/>
<line fill="#000000" stroke="#000000" stroke-width="1" x1="282" x2="282" y1="579" y2="584"/>
<line fill="#000000" stroke="#000000" stroke-width="1" x1="282" x2="282" y1="589" y2="594"/>
<line fill="#000000" stroke="#000000" stroke-width="1" x1="282" x2="282" y1="599" y2="604"/>
<line fill="#000000" stroke="#000000" stroke-width="1" x1="282" x2="282" y1="609" y2="614"/>
<line fill="#000000" stroke="#000000" stroke-width="1" x1="282" x2="282" y1="619" y2="620"/>
<rect fill="#ffffff" height="501" stroke="#ffffff" stroke-width="1" width="20" x="272" y="119"/>
<rect fill="none" height="501" stroke="#000000" stroke-width="1" width="20" x="272" y="119"/>
<rect fill="#ffffff" height="50" stroke="#ffffff" stroke-width="1" width="152" x="206" y="70"/>
<rect fill="none" height="50" stroke="#000000" stroke-width="1" width="152" x="206" y="70"/>
<text font-family="Dialog" font-size="12" x="235" y="83">
:NewLayerDock</text>
<line fill="#000000" stroke="#000000" stroke-width="1" x1="505" x2="505" y1="119" y2="124"/>
<line fill="#000000" stroke="#000000" stroke-width="1" x1="505" x2="505" y1="129" y2="134"/>
<line fill="#000000" stroke="#000000" stroke-width="1" x1="505" x2="505" y1="139" y2="144"/>
<line fill="#000000" stroke="#000000" stroke-width="1" x1="505" x2="505" y1="149" y2="154"/>
<line fill="#000000" stroke="#000000" stroke-width="1" x1="505" x2="505" y1="159" y2="164"/>
<line fill="#000000" stroke="#000000" stroke-width="1" x1="505" x2="505" y1="169" y2="174"/>
<line fill="#000000" stroke="#000000" stroke-width="1" x1="505" x2="505" y1="179" y2="184"/>
<line fill="#000000" stroke="#000000" stroke-width="1" x1="505" x2="505" y1="189" y2="194"/>
<line fill="#000000" stroke="#000000" stroke-width="1" x1="505" x2="505" y1="199" y2="204"/>
<line fill="#000000" stroke="#000000" stroke-width="1" x1="505" x2="505" y1="209" y2="214"/>
<line fill="#000000" stroke="#000000" stroke-width="1" x1="505" x2="505" y1="219" y2="224"/>
<line fill="#000000" stroke="#000000" stroke-width="1" x1="505" x2="505" y1="229" y2="234"/>
<line fill="#000000" stroke="#000000" stroke-width="1" x1="505" x2="505" y1="239" y2="244"/>
<line fill="#000000" stroke="#000000" stroke-width="1" x1="505" x2="505" y1="249" y2="254"/>
<line fill="#000000" stroke="#000000" stroke-width="1" x1="505" x2="505" y1="259" y2="264"/>
<line fill="#000000" stroke="#000000" stroke-width="1" x1="505" x2="505" y1="269" y2="274"/>
<line fill="#000000" stroke="#000000" stroke-width="1" x1="505" x2="505" y1="279" y2="284"/>
<line fill="#000000" stroke="#000000" stroke-width="1" x1="505" x2="505" y1="289" y2="294"/>
<line fill="#000000" stroke="#000000" stroke-width="1" x1="505" x2="505" y1="299" y2="304"/>
<line fill="#000000" stroke="#000000" stroke-width="1" x1="505" x2="505" y1="309" y2="314"/>
<line fill="#000000" stroke="#000000" stroke-width="1" x1="505" x2="505" y1="319" y2="324"/>
<line fill="#000000" stroke="#000000" stroke-width="1" x1="505" x2="505" y1="329" y2="334"/>
<line fill="#000000" stroke="#000000" stroke-width="1" x1="505" x2="505" y1="339" y2="344"/>
<line fill="#000000" stroke="#000000" stroke-width="1" x1="505" x2="505" y1="349" y2="354"/>
<line fill="#000000" stroke="#000000" stroke-width="1" x1="505" x2="505" y1="359" y2="364"/>
<line fill="#000000" stroke="#000000" stroke-width="1" x1="505" x2="505" y1="369" y2="374"/>
<line fill="#000000" stroke="#000000" stroke-width="1" x1="505" x2="505" y1="379" y2="384"/>
<line fill="#000000" stroke="#000000" stroke-width="1" x1="505" x2="505" y1="389" y2="394"/>
<line fill="#000000" stroke="#000000" stroke-width="1" x1="505" x2="505" y1="399" y2="404"/>
<line fill="#000000" stroke="#000000" stroke-width="1" x1="505" x2="505" y1="409" y2="414"/>
<line fill="#000000" stroke="#000000" stroke-width="1" x1="505" x2="505" y1="419" y2="424"/>
<line fill="#000000" stroke="#000000" stroke-width="1" x1="505" x2="505" y1="429" y2="434"/>
<line fill="#000000" stroke="#000000" stroke-width="1" x1="505" x2="505" y1="439" y2="444"/>
<line fill="#000000" stroke="#000000" stroke-width="1" x1="505" x2="505" y1="449" y2="454"/>
<line fill="#000000" stroke="#000000" stroke-width="1" x1="505" x2="505" y1="459" y2="464"/>
<line fill="#000000" stroke="#000000" stroke-width="1" x1="505" x2="505" y1="469" y2="474"/>
<line fill="#000000" stroke="#000000" stroke-width="1" x1="505" x2="505" y1="479" y2="484"/>
<line fill="#000000" stroke="#000000" stroke-width="1" x1="505" x2="505" y1="489" y2="494"/>
<line fill="#000000" stroke="#000000" stroke-width="1" x1="505" x2="505" y1="499" y2="504"/>
<line fill="#000000" stroke="#000000" stroke-width="1" x1="505" x2="505" y1="509" y2="514"/>
<line fill="#000000" stroke="#000000" stroke-width="1" x1="505" x2="505" y1="519" y2="524"/>
<line fill="#000000" stroke="#000000" stroke-width="1" x1="505" x2="505" y1="529" y2="534"/>
<line fill="#000000" stroke="#000000" stroke-width="1" x1="505" x2="505" y1="539" y2="544"/>
<line fill="#000000" stroke="#000000" stroke-width="1" x1="505" x2="505" y1="549" y2="554"/>
<line fill="#000000" stroke="#000000" stroke-width="1" x1="505" x2="505" y1="559" y2="564"/>
<line fill="#000000" stroke="#000000" stroke-width="1" x1="505" x2="505" y1="569" y2="574"/>
<line fill="#000000" stroke="#000000" stroke-width="1" x1="505" x2="505" y1="579" y2="584"/>
<line fill="#000000" stroke="#000000" stroke-width="1" x1="505" x2="505" y1="589" y2="594"/>
<line fill="#000000" stroke="#000000" stroke-width="1" x1="505" x2="505" y1="599" y2="604"/>
<line fill="#000000" stroke="#000000" stroke-width="1" x1="505" x2="505" y1="609" y2="614"/>
<rect fill="#ffffff" height="500" stroke="#ffffff" stroke-width="1" width="20" x="495" y="119"/>
<rect fill="none" height="500" stroke="#000000" stroke-width="1" width="20" x="495" y="119"/>
<rect fill="#ffffff" height="50" stroke="#ffffff" stroke-width="1" width="150" x="430" y="70"/>
<rect fill="none" height="50" stroke="#000000" stroke-width="1" width="150" x="430" y="70"/>
<text font-family="Dialog" font-size="12" x="456" y="83">
:InteractionTool</text>
<line fill="#000000" stroke="#000000" stroke-width="1" x1="734" x2="734" y1="119" y2="124"/>
<line fill="#000000" stroke="#000000" stroke-width="1" x1="734" x2="734" y1="129" y2="134"/>
<line fill="#000000" stroke="#000000" stroke-width="1" x1="734" x2="734" y1="139" y2="144"/>
<line fill="#000000" stroke="#000000" stroke-width="1" x1="734" x2="734" y1="149" y2="154"/>
<line fill="#000000" stroke="#000000" stroke-width="1" x1="734" x2="734" y1="159" y2="164"/>
<line fill="#000000" stroke="#000000" stroke-width="1" x1="734" x2="734" y1="169" y2="174"/>
<line fill="#000000" stroke="#000000" stroke-width="1" x1="734" x2="734" y1="179" y2="184"/>
<line fill="#000000" stroke="#000000" stroke-width="1" x1="734" x2="734" y1="189" y2="194"/>
<line fill="#000000" stroke="#000000" stroke-width="1" x1="734" x2="734" y1="199" y2="204"/>
<line fill="#000000" stroke="#000000" stroke-width="1" x1="734" x2="734" y1="209" y2="214"/>
<line fill="#000000" stroke="#000000" stroke-width="1" x1="734" x2="734" y1="219" y2="224"/>
<line fill="#000000" stroke="#000000" stroke-width="1" x1="734" x2="734" y1="229" y2="234"/>
<line fill="#000000" stroke="#000000" stroke-width="1" x1="734" x2="734" y1="239" y2="244"/>
<line fill="#000000" stroke="#000000" stroke-width="1" x1="734" x2="734" y1="249" y2="254"/>
<line fill="#000000" stroke="#000000" stroke-width="1" x1="734" x2="734" y1="259" y2="264"/>
<line fill="#000000" stroke="#000000" stroke-width="1" x1="734" x2="734" y1="269" y2="274"/>
<line fill="#000000" stroke="#000000" stroke-width="1" x1="734" x2="734" y1="279" y2="284"/>
<line fill="#000000" stroke="#000000" stroke-width="1" x1="734" x2="734" y1="289" y2="294"/>
<line fill="#000000" stroke="#000000" stroke-width="1" x1="734" x2="734" y1="299" y2="304"/>
<line fill="#000000" stroke="#000000" stroke-width="1" x1="734" x2="734" y1="309" y2="314"/>
<line fill="#000000" stroke="#000000" stroke-width="1" x1="734" x2="734" y1="319" y2="324"/>
<line fill="#000000" stroke="#000000" stroke-width="1" x1="734" x2="734" y1="329" y2="334"/>
<line fill="#000000" stroke="#000000" stroke-width="1" x1="734" x2="734" y1="339" y2="344"/>
<line fill="#000000" stroke="#000000" stroke-width="1" x1="734" x2="734" y1="349" y2="354"/>
<line fill="#000000" stroke="#000000" stroke-width="1" x1="734" x2="734" y1="359" y2="364"/>
<line fill="#000000" stroke="#000000" stroke-width="1" x1="734" x2="734" y1="369" y2="374"/>
<line fill="#000000" stroke="#000000" stroke-width="1" x1="734" x2="734" y1="379" y2="384"/>
<line fill="#000000" stroke="#000000" stroke-width="1" x1="734" x2="734" y1="389" y2="394"/>
<line fill="#000000" stroke="#000000" stroke-width="1" x1="734" x2="734" y1="399" y2="404"/>
<line fill="#000000" stroke="#000000" stroke-width="1" x1="734" x2="734" y1="409" y2="414"/>
<line fill="#000000" stroke="#000000" stroke-width="1" x1="734" x2="734" y1="419" y2="424"/>
<line fill="#000000" stroke="#000000" stroke-width="1" x1="734" x2="734" y1="429" y2="434"/>
<line fill="#000000" stroke="#000000" stroke-width="1" x1="734" x2="734" y1="439" y2="444"/>
<line fill="#000000" stroke="#000000" stroke-width="1" x1="734" x2="734" y1="449" y2="454"/>
<line fill="#000000" stroke="#000000" stroke-width="1" x1="734" x2="734" y1="459" y2="464"/>
<line fill="#000000" stroke="#000000" stroke-width="1" x1="734" x2="734" y1="469" y2="474"/>
<line fill="#000000" stroke="#000000" stroke-width="1" x1="734" x2="734" y1="479" y2="484"/>
<line fill="#000000" stroke="#000000" stroke-width="1" x1="734" x2="734" y1="489" y2="494"/>
<line fill="#000000" stroke="#000000" stroke-width="1" x1="734" x2="734" y1="499" y2="504"/>
<line fill="#000000" stroke="#000000" stroke-width="1" x1="734" x2="734" y1="509" y2="514"/>
<line fill="#000000" stroke="#000000" stroke-width="1" x1="734" x2="734" y1="519" y2="524"/>
<line fill="#000000" stroke="#000000" stroke-width="1" x1="734" x2="734" y1="529" y2="534"/>
<line fill="#000000" stroke="#000000" stroke-width="1" x1="734" x2="734" y1="539" y2="544"/>
<line fill="#000000" stroke="#000000" stroke-width="1" x1="734" x2="734" y1="549" y2="554"/>
<line fill="#000000" stroke="#000000" stroke-width="1" x1="734" x2="734" y1="559" y2="564"/>
<line fill="#000000" stroke="#000000" stroke-width="1" x1="734" x2="734" y1="569" y2="574"/>
<line fill="#000000" stroke="#000000" stroke-width="1" x1="734" x2="734" y1="579" y2="584"/>
<line fill="#000000" stroke="#000000" stroke-width="1" x1="734" x2="734" y1="589" y2="594"/>
<line fill="#000000" stroke="#000000" stroke-width="1" x1="734" x2="734" y1="599" y2="604"/>
<line fill="#000000" stroke="#000000" stroke-width="1" x1="734" x2="734" y1="609" y2="614"/>
<line fill="#000000" stroke="#000000" stroke-width="1" x1="734" x2="734" y1="619" y2="620"/>
<rect fill="#ffffff" height="501" stroke="#ffffff" stroke-width="1" width="20" x="724" y="119"/>
<rect fill="none" height="501" stroke="#000000" stroke-width="1" width="20" x="724" y="119"/>
<rect fill="#ffffff" height="50" stroke="#ffffff" stroke-width="1" width="144" x="662" y="70"/>
<rect fill="none" height="50" stroke="#000000" stroke-width="1" width="144" x="662" y="70"/>
<text font-family="Dialog" font-size="12" x="679" y="83">
:ManipulationTool</text>
<line fill="#000000" stroke="#000000" stroke-width="1" x1="941" x2="941" y1="238" y2="243"/>
<line fill="#000000" stroke="#000000" stroke-width="1" x1="941" x2="941" y1="248" y2="253"/>
<line fill="#000000" stroke="#000000" stroke-width="1" x1="941" x2="941" y1="258" y2="263"/>
<line fill="#000000" stroke="#000000" stroke-width="1" x1="941" x2="941" y1="268" y2="273"/>
<line fill="#000000" stroke="#000000" stroke-width="1" x1="941" x2="941" y1="278" y2="283"/>
<line fill="#000000" stroke="#000000" stroke-width="1" x1="941" x2="941" y1="288" y2="293"/>
<line fill="#000000" stroke="#000000" stroke-width="1" x1="941" x2="941" y1="298" y2="303"/>
<line fill="#000000" stroke="#000000" stroke-width="1" x1="941" x2="941" y1="308" y2="313"/>
<line fill="#000000" stroke="#000000" stroke-width="1" x1="941" x2="941" y1="318" y2="323"/>
<line fill="#000000" stroke="#000000" stroke-width="1" x1="941" x2="941" y1="328" y2="333"/>
<line fill="#000000" stroke="#000000" stroke-width="1" x1="941" x2="941" y1="338" y2="343"/>
<line fill="#000000" stroke="#000000" stroke-width="1" x1="941" x2="941" y1="348" y2="353"/>
<line fill="#000000" stroke="#000000" stroke-width="1" x1="941" x2="941" y1="358" y2="363"/>
<line fill="#000000" stroke="#000000" stroke-width="1" x1="941" x2="941" y1="368" y2="373"/>
<line fill="#000000" stroke="#000000" stroke-width="1" x1="941" x2="941" y1="378" y2="383"/>
<line fill="#000000" stroke="#000000" stroke-width="1" x1="941" x2="941" y1="388" y2="393"/>
<line fill="#000000" stroke="#000000" stroke-width="1" x1="941" x2="941" y1="398" y2="403"/>
<line fill="#000000" stroke="#000000" stroke-width="1" x1="941" x2="941" y1="408" y2="413"/>
<line fill="#000000" stroke="#000000" stroke-width="1" x1="941" x2="941" y1="418" y2="423"/>
<line fill="#000000" stroke="#000000" stroke-width="1" x1="941" x2="941" y1="428" y2="433"/>
<line fill="#000000" stroke="#000000" stroke-width="1" x1="941" x2="941" y1="438" y2="443"/>
<line fill="#000000" stroke="#000000" stroke-width="1" x1="941" x2="941" y1="448" y2="453"/>
<line fill="#000000" stroke="#000000" stroke-width="1" x1="941" x2="941" y1="458" y2="463"/>
<line fill="#000000" stroke="#000000" stroke-width="1" x1="941" x2="941" y1="468" y2="473"/>
<rect fill="#ffffff" height="240" stroke="#ffffff" stroke-width="1" width="20" x="931" y="238"/>
<rect fill="none" height="240" stroke="#000000" stroke-width="1" width="20" x="931" y="238"/>
<line fill="#000000" stroke="#000000" stroke-width="1" x1="931" x2="951" y1="478" y2="498"/>
<line fill="#000000" stroke="#000000" stroke-width="1" x1="931" x2="951" y1="498" y2="478"/>
<rect fill="#ffffff" height="50" stroke="#ffffff" stroke-width="1" width="142" x="870" y="189"/>
<rect fill="none" height="50" stroke="#000000" stroke-width="1" width="142" x="870" y="189"/>
<text font-family="Dialog" font-size="12" x="896" y="202">
:NewLayerTool</text>
<line fill="#000000" stroke="#000000" stroke-width="1" x1="1137" x2="1137" y1="310" y2="315"/>
<line fill="#000000" stroke="#000000" stroke-width="1" x1="1137" x2="1137" y1="320" y2="325"/>
<line fill="#000000" stroke="#000000" stroke-width="1" x1="1137" x2="1137" y1="330" y2="335"/>
<line fill="#000000" stroke="#000000" stroke-width="1" x1="1137" x2="1137" y1="340" y2="345"/>
<line fill="#000000" stroke="#000000" stroke-width="1" x1="1137" x2="1137" y1="350" y2="355"/>
<line fill="#000000" stroke="#000000" stroke-width="1" x1="1137" x2="1137" y1="360" y2="365"/>
<line fill="#000000" stroke="#000000" stroke-width="1" x1="1137" x2="1137" y1="370" y2="375"/>
<line fill="#000000" stroke="#000000" stroke-width="1" x1="1137" x2="1137" y1="380" y2="385"/>
<line fill="#000000" stroke="#000000" stroke-width="1" x1="1137" x2="1137" y1="390" y2="395"/>
<rect fill="#ffffff" height="88" stroke="#ffffff" stroke-width="1" width="20" x="1127" y="310"/>
<rect fill="none" height="88" stroke="#000000" stroke-width="1" width="20" x="1127" y="310"/>
<line fill="#000000" stroke="#000000" stroke-width="1" x1="1127" x2="1147" y1="398" y2="418"/>
<line fill="#000000" stroke="#000000" stroke-width="1" x1="1127" x2="1147" y1="418" y2="398"/>
<rect fill="#ffffff" height="50" stroke="#ffffff" stroke-width="1" width="150" x="1062" y="261"/>
<rect fill="none" height="50" stroke="#000000" stroke-width="1" width="150" x="1062" y="261"/>
<text font-family="Dialog" font-size="12" x="1088" y="274">
:FloydSteinberg</text>
<polyline fill="none" points="292,158 495,158" stroke="#000000" stroke-width="1"/>
<line fill="#000000" stroke="#000000" stroke-width="1" x1="483" x2="495" y1="165" y2="158"/>
<line fill="#000000" stroke="#000000" stroke-width="1" x1="483" x2="495" y1="151" y2="158"/>
<text font-family="Dialog" font-size="12" x="347" y="153">
useTool (toolparam)</text>
<polyline fill="none" points="515,190 724,190" stroke="#000000" stroke-width="1"/>
<line fill="#000000" stroke="#000000" stroke-width="1" x1="712" x2="724" y1="197" y2="190"/>
<line fill="#000000" stroke="#000000" stroke-width="1" x1="712" x2="724" y1="183" y2="190"/>
<text font-family="Dialog" font-size="12" x="573" y="185">
useTool (toolparam)</text>
<polyline fill="none" points="744,214 870,214" stroke="#000000" stroke-width="1"/>
<polygon fill="#000000" points="870,214 858,221 858,207" stroke="#000000" stroke-width="1"/>
<polygon fill="none" points="870,214 858,221 858,207" stroke="#000000" stroke-width="1"/>
<text font-family="Dialog" font-size="12" x="763" y="209">
create (Pciture)</text>
<polyline fill="none" points="951,286 1062,286" stroke="#000000" stroke-width="1"/>
<polygon fill="#000000" points="1062,286 1050,293 1050,279" stroke="#000000" stroke-width="1"/>
<polygon fill="none" points="1062,286 1050,293 1050,279" stroke="#000000" stroke-width="1"/>
<line fill="#000000" stroke="#000000" stroke-width="1" x1="1127" x2="1122" y1="350" y2="350"/>
<line fill="#000000" stroke="#000000" stroke-width="1" x1="1117" x2="1112" y1="350" y2="350"/>
<line fill="#000000" stroke="#000000" stroke-width="1" x1="1107" x2="1102" y1="350" y2="350"/>
<line fill="#000000" stroke="#000000" stroke-width="1" x1="1097" x2="1092" y1="350" y2="350"/>
<line fill="#000000" stroke="#000000" stroke-width="1" x1="1087" x2="1082" y1="350" y2="350"/>
<line fill="#000000" stroke="#000000" stroke-width="1" x1="1077" x2="1072" y1="350" y2="350"/>
<line fill="#000000" stroke="#000000" stroke-width="1" x1="1067" x2="1062" y1="350" y2="350"/>
<line fill="#000000" stroke="#000000" stroke-width="1" x1="1057" x2="1052" y1="350" y2="350"/>
<line fill="#000000" stroke="#000000" stroke-width="1" x1="1047" x2="1042" y1="350" y2="350"/>
<line fill="#000000" stroke="#000000" stroke-width="1" x1="1037" x2="1032" y1="350" y2="350"/>
<line fill="#000000" stroke="#000000" stroke-width="1" x1="1027" x2="1022" y1="350" y2="350"/>
<line fill="#000000" stroke="#000000" stroke-width="1" x1="1017" x2="1012" y1="350" y2="350"/>
<line fill="#000000" stroke="#000000" stroke-width="1" x1="1007" x2="1002" y1="350" y2="350"/>
<line fill="#000000" stroke="#000000" stroke-width="1" x1="997" x2="992" y1="350" y2="350"/>
<line fill="#000000" stroke="#000000" stroke-width="1" x1="987" x2="982" y1="350" y2="350"/>
<line fill="#000000" stroke="#000000" stroke-width="1" x1="977" x2="972" y1="350" y2="350"/>
<line fill="#000000" stroke="#000000" stroke-width="1" x1="967" x2="962" y1="350" y2="350"/>
<line fill="#000000" stroke="#000000" stroke-width="1" x1="957" x2="952" y1="350" y2="350"/>
<line fill="#000000" stroke="#000000" stroke-width="1" x1="963" x2="951" y1="343" y2="350"/>
<line fill="#000000" stroke="#000000" stroke-width="1" x1="963" x2="951" y1="357" y2="350"/>
<polyline fill="none" points="951,398 1127,398" stroke="#000000" stroke-width="1"/>
<polygon fill="#000000" points="1127,398 1115,405 1115,391" stroke="#000000" stroke-width="1"/>
<polygon fill="none" points="1127,398 1115,405 1115,391" stroke="#000000" stroke-width="1"/>
<line fill="#000000" stroke="#000000" stroke-width="1" x1="931" x2="926" y1="430" y2="430"/>
<line fill="#000000" stroke="#000000" stroke-width="1" x1="921" x2="916" y1="430" y2="430"/>
<line fill="#000000" stroke="#000000" stroke-width="1" x1="911" x2="906" y1="430" y2="430"/>
<line fill="#000000" stroke="#000000" stroke-width="1" x1="901" x2="896" y1="430" y2="430"/>
<line fill="#000000" stroke="#000000" stroke-width="1" x1="891" x2="886" y1="430" y2="430"/>
<line fill="#000000" stroke="#000000" stroke-width="1" x1="881" x2="876" y1="430" y2="430"/>
<line fill="#000000" stroke="#000000" stroke-width="1" x1="871" x2="866" y1="430" y2="430"/>
<line fill="#000000" stroke="#000000" stroke-width="1" x1="861" x2="856" y1="430" y2="430"/>
<line fill="#000000" stroke="#000000" stroke-width="1" x1="851" x2="846" y1="430" y2="430"/>
<line fill="#000000" stroke="#000000" stroke-width="1" x1="841" x2="836" y1="430" y2="430"/>
<line fill="#000000" stroke="#000000" stroke-width="1" x1="831" x2="826" y1="430" y2="430"/>
<line fill="#000000" stroke="#000000" stroke-width="1" x1="821" x2="816" y1="430" y2="430"/>
<line fill="#000000" stroke="#000000" stroke-width="1" x1="811" x2="806" y1="430" y2="430"/>
<line fill="#000000" stroke="#000000" stroke-width="1" x1="801" x2="796" y1="430" y2="430"/>
<line fill="#000000" stroke="#000000" stroke-width="1" x1="791" x2="786" y1="430" y2="430"/>
<line fill="#000000" stroke="#000000" stroke-width="1" x1="781" x2="776" y1="430" y2="430"/>
<line fill="#000000" stroke="#000000" stroke-width="1" x1="771" x2="766" y1="430" y2="430"/>
<line fill="#000000" stroke="#000000" stroke-width="1" x1="761" x2="756" y1="430" y2="430"/>
<line fill="#000000" stroke="#000000" stroke-width="1" x1="751" x2="746" y1="430" y2="430"/>
<line fill="#000000" stroke="#000000" stroke-width="1" x1="756" x2="744" y1="423" y2="430"/>
<line fill="#000000" stroke="#000000" stroke-width="1" x1="756" x2="744" y1="437" y2="430"/>
<polyline fill="none" points="744,478 931,478" stroke="#000000" stroke-width="1"/>
<polygon fill="#000000" points="931,478 919,485 919,471" stroke="#000000" stroke-width="1"/>
<polygon fill="none" points="931,478 919,485 919,471" stroke="#000000" stroke-width="1"/>
<line fill="#000000" stroke="#000000" stroke-width="1" x1="724" x2="719" y1="502" y2="502"/>
<line fill="#000000" stroke="#000000" stroke-width="1" x1="714" x2="709" y1="502" y2="502"/>
<line fill="#000000" stroke="#000000" stroke-width="1" x1="704" x2="699" y1="502" y2="502"/>
<line fill="#000000" stroke="#000000" stroke-width="1" x1="694" x2="689" y1="502" y2="502"/>
<line fill="#000000" stroke="#000000" stroke-width="1" x1="684" x2="679" y1="502" y2="502"/>
<line fill="#000000" stroke="#000000" stroke-width="1" x1="674" x2="669" y1="502" y2="502"/>
<line fill="#000000" stroke="#000000" stroke-width="1" x1="664" x2="659" y1="502" y2="502"/>
<line fill="#000000" stroke="#000000" stroke-width="1" x1="654" x2="649" y1="502" y2="502"/>
<line fill="#000000" stroke="#000000" stroke-width="1" x1="644" x2="639" y1="502" y2="502"/>
<line fill="#000000" stroke="#000000" stroke-width="1" x1="634" x2="629" y1="502" y2="502"/>
<line fill="#000000" stroke="#000000" stroke-width="1" x1="624" x2="619" y1="502" y2="502"/>
<line fill="#000000" stroke="#000000" stroke-width="1" x1="614" x2="609" y1="502" y2="502"/>
<line fill="#000000" stroke="#000000" stroke-width="1" x1="604" x2="599" y1="502" y2="502"/>
<line fill="#000000" stroke="#000000" stroke-width="1" x1="594" x2="589" y1="502" y2="502"/>
<line fill="#000000" stroke="#000000" stroke-width="1" x1="584" x2="579" y1="502" y2="502"/>
<line fill="#000000" stroke="#000000" stroke-width="1" x1="574" x2="569" y1="502" y2="502"/>
<line fill="#000000" stroke="#000000" stroke-width="1" x1="564" x2="559" y1="502" y2="502"/>
<line fill="#000000" stroke="#000000" stroke-width="1" x1="554" x2="549" y1="502" y2="502"/>
<line fill="#000000" stroke="#000000" stroke-width="1" x1="544" x2="539" y1="502" y2="502"/>
<line fill="#000000" stroke="#000000" stroke-width="1" x1="534" x2="529" y1="502" y2="502"/>
<line fill="#000000" stroke="#000000" stroke-width="1" x1="524" x2="519" y1="502" y2="502"/>
<line fill="#000000" stroke="#000000" stroke-width="1" x1="527" x2="515" y1="495" y2="502"/>
<line fill="#000000" stroke="#000000" stroke-width="1" x1="527" x2="515" y1="509" y2="502"/>
<line fill="#000000" stroke="#000000" stroke-width="1" x1="495" x2="490" y1="558" y2="558"/>
<line fill="#000000" stroke="#000000" stroke-width="1" x1="485" x2="480" y1="558" y2="558"/>
<line fill="#000000" stroke="#000000" stroke-width="1" x1="475" x2="470" y1="558" y2="558"/>
<line fill="#000000" stroke="#000000" stroke-width="1" x1="465" x2="460" y1="558" y2="558"/>
<line fill="#000000" stroke="#000000" stroke-width="1" x1="455" x2="450" y1="558" y2="558"/>
<line fill="#000000" stroke="#000000" stroke-width="1" x1="445" x2="440" y1="558" y2="558"/>
<line fill="#000000" stroke="#000000" stroke-width="1" x1="435" x2="430" y1="558" y2="558"/>
<line fill="#000000" stroke="#000000" stroke-width="1" x1="425" x2="420" y1="558" y2="558"/>
<line fill="#000000" stroke="#000000" stroke-width="1" x1="415" x2="410" y1="558" y2="558"/>
<line fill="#000000" stroke="#000000" stroke-width="1" x1="405" x2="400" y1="558" y2="558"/>
<line fill="#000000" stroke="#000000" stroke-width="1" x1="395" x2="390" y1="558" y2="558"/>
<line fill="#000000" stroke="#000000" stroke-width="1" x1="385" x2="380" y1="558" y2="558"/>
<line fill="#000000" stroke="#000000" stroke-width="1" x1="375" x2="370" y1="558" y2="558"/>
<line fill="#000000" stroke="#000000" stroke-width="1" x1="365" x2="360" y1="558" y2="558"/>
<line fill="#000000" stroke="#000000" stroke-width="1" x1="355" x2="350" y1="558" y2="558"/>
<line fill="#000000" stroke="#000000" stroke-width="1" x1="345" x2="340" y1="558" y2="558"/>
<line fill="#000000" stroke="#000000" stroke-width="1" x1="335" x2="330" y1="558" y2="558"/>
<line fill="#000000" stroke="#000000" stroke-width="1" x1="325" x2="320" y1="558" y2="558"/>
<line fill="#000000" stroke="#000000" stroke-width="1" x1="315" x2="310" y1="558" y2="558"/>
<line fill="#000000" stroke="#000000" stroke-width="1" x1="305" x2="300" y1="558" y2="558"/>
<line fill="#000000" stroke="#000000" stroke-width="1" x1="295" x2="292" y1="558" y2="558"/>
<line fill="#000000" stroke="#000000" stroke-width="1" x1="304" x2="292" y1="551" y2="558"/>
<line fill="#000000" stroke="#000000" stroke-width="1" x1="304" x2="292" y1="565" y2="558"/>
<polygon fill="#ffffff" points="126,14 198,14 208,24 208,49 126,49 126,14" stroke="#ffffff" stroke-width="1"/>
<polyline fill="none" points="126,14 198,14 208,24 208,49 126,49 126,14" stroke="#000000" stroke-width="1"/>
<polygon fill="#b2b2b2" points="198,14 208,24 198,24 198,14" stroke="#b2b2b2" stroke-width="1"/>
<polyline fill="none" points="198,14 208,24 198,24 198,14" stroke="#000000" stroke-width="1"/>
<text font-family="Dialog" font-size="12" x="129" y="29">
IntelliPhoto</text>
<polygon fill="#ffffff" points="22,110 101,110 111,120 111,160 22,160 22,110" stroke="#ffffff" stroke-width="1"/>
<polyline fill="none" points="22,110 101,110 111,120 111,160 22,160 22,110" stroke="#000000" stroke-width="1"/>
<polygon fill="#b2b2b2" points="101,110 111,120 101,120 101,110" stroke="#b2b2b2" stroke-width="1"/>
<polyline fill="none" points="101,110 111,120 101,120 101,110" stroke="#000000" stroke-width="1"/>
<text font-family="Dialog" font-size="12" x="25" y="125">
anonymous </text>
<text font-family="Dialog" font-size="12" x="25" y="140">
caller</text>
<polygon fill="#ffffff" points="14,566 89,566 99,576 99,616 14,616 14,566" stroke="#ffffff" stroke-width="1"/>
<polyline fill="none" points="14,566 89,566 99,576 99,616 14,616 14,566" stroke="#000000" stroke-width="1"/>
<polygon fill="#b2b2b2" points="89,566 99,576 89,576 89,566" stroke="#b2b2b2" stroke-width="1"/>
<polyline fill="none" points="89,566 99,576 89,576 89,566" stroke="#000000" stroke-width="1"/>
<text font-family="Dialog" font-size="12" x="17" y="581">
anonymous</text>
<text font-family="Dialog" font-size="12" x="17" y="596">
caller</text>
<line fill="#000000" stroke="#000000" stroke-width="1" x1="110" x2="270" y1="134" y2="134"/>
<line fill="#000000" stroke="#000000" stroke-width="1" x1="270" x2="262" y1="134" y2="142"/>
<line fill="#000000" stroke="#000000" stroke-width="1" x1="270" x2="262" y1="134" y2="126"/>
<line fill="#000000" stroke="#000000" stroke-width="1" x1="102" x2="270" y1="590" y2="590"/>
<line fill="#000000" stroke="#000000" stroke-width="1" x1="102" x2="118" y1="590" y2="606"/>
<line fill="#000000" stroke="#000000" stroke-width="1" x1="102" x2="118" y1="590" y2="582"/>
</svg>
