<?xml version="1.0" encoding="utf-8" ?>
<!DOCTYPE svg PUBLIC "-//W3C//DTD SVG 1.1//EN" "http://www.w3.org/Graphics/SVG/1.1/DTD/svg11.dtd">
<svg height="548" version="1.1" width="988" xmlns="http://www.w3.org/2000/svg">
<line fill="#000000" stroke="#000000" stroke-width="1" x1="556" x2="556" y1="50" y2="54"/>
<line fill="#000000" stroke="#000000" stroke-width="1" x1="557" x2="558" y1="59" y2="64"/>
<line fill="#000000" stroke="#000000" stroke-width="1" x1="559" x2="559" y1="69" y2="74"/>
<line fill="#000000" stroke="#000000" stroke-width="1" x1="560" x2="561" y1="79" y2="84"/>
<line fill="#000000" stroke="#000000" stroke-width="1" x1="562" x2="562" y1="89" y2="94"/>
<line fill="#000000" stroke="#000000" stroke-width="1" x1="563" x2="564" y1="99" y2="104"/>
<line fill="#000000" stroke="#000000" stroke-width="1" x1="565" x2="565" y1="109" y2="114"/>
<line fill="#000000" stroke="#000000" stroke-width="1" x1="566" x2="567" y1="119" y2="124"/>
<line fill="#000000" stroke="#000000" stroke-width="1" x1="568" x2="568" y1="129" y2="134"/>
<line fill="#000000" stroke="#000000" stroke-width="1" x1="569" x2="570" y1="139" y2="144"/>
<line fill="#000000" stroke="#000000" stroke-width="1" x1="571" x2="571" y1="149" y2="153"/>
<line fill="#000000" stroke="#000000" stroke-width="1" x1="572" x2="573" y1="158" y2="163"/>
<line fill="#000000" stroke="#000000" stroke-width="1" x1="574" x2="574" y1="168" y2="173"/>
<line fill="#000000" stroke="#000000" stroke-width="1" x1="575" x2="576" y1="178" y2="183"/>
<line fill="#000000" stroke="#000000" stroke-width="1" x1="577" x2="577" y1="188" y2="193"/>
<line fill="#000000" stroke="#000000" stroke-width="1" x1="578" x2="579" y1="198" y2="203"/>
<line fill="#000000" stroke="#000000" stroke-width="1" x1="580" x2="580" y1="208" y2="213"/>
<line fill="#000000" stroke="#000000" stroke-width="1" x1="581" x2="582" y1="218" y2="223"/>
<line fill="#000000" stroke="#000000" stroke-width="1" x1="583" x2="583" y1="228" y2="233"/>
<line fill="#000000" stroke="#000000" stroke-width="1" x1="584" x2="585" y1="238" y2="243"/>
<line fill="#000000" stroke="#000000" stroke-width="1" x1="586" x2="586" y1="248" y2="253"/>
<line fill="#000000" stroke="#000000" stroke-width="1" x1="587" x2="588" y1="257" y2="262"/>
<line fill="#000000" stroke="#000000" stroke-width="1" x1="589" x2="590" y1="267" y2="272"/>
<line fill="#000000" stroke="#000000" stroke-width="1" x1="590" x2="591" y1="277" y2="282"/>
<line fill="#000000" stroke="#000000" stroke-width="1" x1="592" x2="593" y1="287" y2="292"/>
<line fill="#000000" stroke="#000000" stroke-width="1" x1="593" x2="594" y1="297" y2="302"/>
<line fill="#000000" stroke="#000000" stroke-width="1" x1="595" x2="596" y1="307" y2="312"/>
<line fill="#000000" stroke="#000000" stroke-width="1" x1="596" x2="597" y1="317" y2="322"/>
<line fill="#000000" stroke="#000000" stroke-width="1" x1="598" x2="599" y1="327" y2="332"/>
<line fill="#000000" stroke="#000000" stroke-width="1" x1="599" x2="600" y1="337" y2="342"/>
<line fill="#000000" stroke="#000000" stroke-width="1" x1="601" x2="602" y1="347" y2="352"/>
<line fill="#000000" stroke="#000000" stroke-width="1" x1="602" x2="603" y1="357" y2="358"/>
<text font-family="Dialog" font-size="12" x="18" y="354">
Friberufliche Fotografen</text>
<ellipse cx="93" cy="303" fill="#000000" rx="8.0" ry="7.5" stroke="#000000" stroke-width="1"/>
<ellipse cx="93" cy="303" fill="#ffffff" rx="7.0" ry="6.5" stroke="#ffffff" stroke-width="1"/>
<line fill="#000000" stroke="#000000" stroke-width="1" x1="93" x2="93" y1="311" y2="326"/>
<line fill="#000000" stroke="#000000" stroke-width="1" x1="83" x2="103" y1="316" y2="316"/>
<line fill="#000000" stroke="#000000" stroke-width="1" x1="93" x2="88" y1="326" y2="341"/>
<line fill="#000000" stroke="#000000" stroke-width="1" x1="93" x2="98" y1="326" y2="341"/>
<rect fill="#ffffff" height="520" stroke="#ffffff" stroke-width="1" width="656" x="190" y="14"/>
<rect fill="none" height="520" stroke="#000000" stroke-width="1" width="656" x="190" y="14"/>
<text font-family="Dialog" font-size="12" x="898" y="362">
3D-Künstler</text>
<ellipse cx="934" cy="311" fill="#000000" rx="8.0" ry="7.5" stroke="#000000" stroke-width="1"/>
<ellipse cx="934" cy="311" fill="#ffffff" rx="7.0" ry="6.5" stroke="#ffffff" stroke-width="1"/>
<line fill="#000000" stroke="#000000" stroke-width="1" x1="934" x2="934" y1="319" y2="334"/>
<line fill="#000000" stroke="#000000" stroke-width="1" x1="924" x2="944" y1="324" y2="324"/>
<line fill="#000000" stroke="#000000" stroke-width="1" x1="934" x2="929" y1="334" y2="349"/>
<line fill="#000000" stroke="#000000" stroke-width="1" x1="934" x2="939" y1="334" y2="349"/>
<ellipse cx="514" cy="247" fill="#000000" rx="76.0" ry="25.0" stroke="#000000" stroke-width="1"/>
<ellipse cx="514" cy="247" fill="#ffffff" rx="75.0" ry="24.0" stroke="#ffffff" stroke-width="1"/>
<text font-family="Dialog" font-size="12" x="452" y="248">
Korrekturwerkzeuge</text>
<ellipse cx="607" cy="379" fill="#000000" rx="57.0" ry="21.0" stroke="#000000" stroke-width="1"/>
<ellipse cx="607" cy="379" fill="#ffffff" rx="56.0" ry="20.0" stroke="#ffffff" stroke-width="1"/>
<text font-family="Dialog" font-size="12" x="568" y="380">
3D-Interface</text>
<polygon fill="#ffffff" points="470,14 545,14 555,24 555,49 470,49 470,14" stroke="#ffffff" stroke-width="1"/>
<polyline fill="none" points="470,14 545,14 555,24 555,49 470,49 470,14" stroke="#000000" stroke-width="1"/>
<polygon fill="#b2b2b2" points="545,14 555,24 545,24 545,14" stroke="#b2b2b2" stroke-width="1"/>
<polyline fill="none" points="545,14 555,24 545,24 545,14" stroke="#000000" stroke-width="1"/>
<text font-family="Dialog" font-size="12" x="473" y="29">
IntelliPhoto</text>
<ellipse cx="517" cy="86" fill="#000000" rx="71.0" ry="24.0" stroke="#000000" stroke-width="1"/>
<ellipse cx="517" cy="86" fill="#ffffff" rx="70.0" ry="23.0" stroke="#ffffff" stroke-width="1"/>
<text font-family="Dialog" font-size="12" x="460" y="87">
Helligkeit/Kontrast</text>
<ellipse cx="693" cy="206" fill="#000000" rx="71.0" ry="24.0" stroke="#000000" stroke-width="1"/>
<ellipse cx="693" cy="206" fill="#ffffff" rx="70.0" ry="23.0" stroke="#ffffff" stroke-width="1"/>
<text font-family="Dialog" font-size="12" x="636" y="207">
Farbton/Sättigung</text>
<ellipse cx="293" cy="198" fill="#000000" rx="71.0" ry="24.0" stroke="#000000" stroke-width="1"/>
<ellipse cx="293" cy="198" fill="#ffffff" rx="70.0" ry="23.0" stroke="#ffffff" stroke-width="1"/>
<text font-family="Dialog" font-size="12" x="236" y="199">
Gradiationskurven</text>
<ellipse cx="375" cy="123" fill="#000000" rx="57.0" ry="21.0" stroke="#000000" stroke-width="1"/>
<ellipse cx="375" cy="123" fill="#ffffff" rx="56.0" ry="20.0" stroke="#ffffff" stroke-width="1"/>
<text font-family="Dialog" font-size="12" x="356" y="124">
Pinsel</text>
<ellipse cx="565" cy="486" fill="#000000" rx="71.0" ry="24.0" stroke="#000000" stroke-width="1"/>
<ellipse cx="565" cy="486" fill="#ffffff" rx="70.0" ry="23.0" stroke="#ffffff" stroke-width="1"/>
<text font-family="Dialog" font-size="12" x="508" y="487">
Import 3D-Dateien</text>
<ellipse cx="726" cy="439" fill="#000000" rx="80.0" ry="25.0" stroke="#000000" stroke-width="1"/>
<ellipse cx="726" cy="439" fill="#ffffff" rx="79.0" ry="24.0" stroke="#ffffff" stroke-width="1"/>
<text font-family="Dialog" font-size="12" x="660" y="440">
3D-Objekte Erzeugen</text>
<polyline fill="none" points="352,210 451,232" stroke="#000000" stroke-width="1"/>
<polygon fill="#ffffff" points="451,232 437,236 440,222" stroke="#ffffff" stroke-width="1"/>
<polygon fill="none" points="451,232 437,236 440,222" stroke="#000000" stroke-width="1"/>
<polyline fill="none" points="396,142 487,223" stroke="#000000" stroke-width="1"/>
<polygon fill="#ffffff" points="487,223 473,220 482,209" stroke="#ffffff" stroke-width="1"/>
<polygon fill="none" points="487,223 473,220 482,209" stroke="#000000" stroke-width="1"/>
<polyline fill="none" points="515,109 515,222" stroke="#000000" stroke-width="1"/>
<polygon fill="#ffffff" points="515,222 508,210 522,210" stroke="#ffffff" stroke-width="1"/>
<polygon fill="none" points="515,222 508,210 522,210" stroke="#000000" stroke-width="1"/>
<polyline fill="none" points="633,219 575,232" stroke="#000000" stroke-width="1"/>
<polygon fill="#ffffff" points="575,232 585,222 588,236" stroke="#ffffff" stroke-width="1"/>
<polygon fill="none" points="575,232 585,222 588,236" stroke="#000000" stroke-width="1"/>
<polyline fill="none" points="574,462 598,399" stroke="#000000" stroke-width="1"/>
<polygon fill="#ffffff" points="598,399 600,412 587,407" stroke="#ffffff" stroke-width="1"/>
<polygon fill="none" points="598,399 600,412 587,407" stroke="#000000" stroke-width="1"/>
<polyline fill="none" points="684,417 641,395" stroke="#000000" stroke-width="1"/>
<polygon fill="#ffffff" points="641,395 654,394 648,406" stroke="#ffffff" stroke-width="1"/>
<polygon fill="none" points="641,395 654,394 648,406" stroke="#000000" stroke-width="1"/>
<polygon fill="#ffffff" points="646,38 796,38 806,48 806,103 646,103 646,38" stroke="#ffffff" stroke-width="1"/>
<polyline fill="none" points="646,38 796,38 806,48 806,103 646,103 646,38" stroke="#000000" stroke-width="1"/>
<polygon fill="#b2b2b2" points="796,38 806,48 796,48 796,38" stroke="#b2b2b2" stroke-width="1"/>
<polyline fill="none" points="796,38 806,48 796,48 796,38" stroke="#000000" stroke-width="1"/>
<text font-family="Dialog" font-size="12" x="649" y="53">
1.IntelliPhoto starten</text>
<text font-family="Dialog" font-size="12" x="649" y="68">
2. Bild auswählen</text>
<text font-family="Dialog" font-size="12" x="649" y="83">
3. Werkzeug wählen</text>
<text font-family="Dialog" font-size="12" x="649" y="98">
4. Werkzeug anwenden</text>
<polygon fill="#ffffff" points="230,414 399,414 409,424 409,509 230,509 230,414" stroke="#ffffff" stroke-width="1"/>
<polyline fill="none" points="230,414 399,414 409,424 409,509 230,509 230,414" stroke="#000000" stroke-width="1"/>
<polygon fill="#b2b2b2" points="399,414 409,424 399,424 399,414" stroke="#b2b2b2" stroke-width="1"/>
<polyline fill="none" points="399,414 409,424 399,424 399,414" stroke="#000000" stroke-width="1"/>
<text font-family="Dialog" font-size="12" x="233" y="429">
1. IntelliPhoto starten</text>
<text font-family="Dialog" font-size="12" x="233" y="444">
2. 3D-Interface auswählen</text>
<text font-family="Dialog" font-size="12" x="233" y="459">
3. Bild laden/erzeugen</text>
<text font-family="Dialog" font-size="12" x="233" y="474">
4. Funktion wählen</text>
<text font-family="Dialog" font-size="12" x="233" y="489">
4. Funktion Anwenden</text>
<text font-family="Dialog" font-size="12" x="233" y="504">
5.Bild exportieren</text>
<line fill="#000000" stroke="#000000" stroke-width="1" x1="409" x2="413" y1="414" y2="414"/>
<line fill="#000000" stroke="#000000" stroke-width="1" x1="418" x2="423" y1="413" y2="412"/>
<line fill="#000000" stroke="#000000" stroke-width="1" x1="428" x2="433" y1="411" y2="410"/>
<line fill="#000000" stroke="#000000" stroke-width="1" x1="438" x2="443" y1="409" y2="408"/>
<line fill="#000000" stroke="#000000" stroke-width="1" x1="448" x2="453" y1="407" y2="407"/>
<line fill="#000000" stroke="#000000" stroke-width="1" x1="458" x2="463" y1="406" y2="405"/>
<line fill="#000000" stroke="#000000" stroke-width="1" x1="468" x2="473" y1="404" y2="403"/>
<line fill="#000000" stroke="#000000" stroke-width="1" x1="478" x2="482" y1="402" y2="401"/>
<line fill="#000000" stroke="#000000" stroke-width="1" x1="487" x2="492" y1="400" y2="400"/>
<line fill="#000000" stroke="#000000" stroke-width="1" x1="497" x2="502" y1="399" y2="398"/>
<line fill="#000000" stroke="#000000" stroke-width="1" x1="507" x2="512" y1="397" y2="396"/>
<line fill="#000000" stroke="#000000" stroke-width="1" x1="517" x2="522" y1="395" y2="394"/>
<line fill="#000000" stroke="#000000" stroke-width="1" x1="527" x2="532" y1="393" y2="393"/>
<line fill="#000000" stroke="#000000" stroke-width="1" x1="537" x2="542" y1="392" y2="391"/>
<line fill="#000000" stroke="#000000" stroke-width="1" x1="547" x2="552" y1="390" y2="389"/>
<line fill="#000000" stroke="#000000" stroke-width="1" x1="544" x2="555" y1="396" y2="388"/>
<line fill="#000000" stroke="#000000" stroke-width="1" x1="541" x2="555" y1="383" y2="388"/>
<line fill="#000000" stroke="#000000" stroke-width="1" x1="646" x2="643" y1="103" y2="106"/>
<line fill="#000000" stroke="#000000" stroke-width="1" x1="640" x2="636" y1="110" y2="114"/>
<line fill="#000000" stroke="#000000" stroke-width="1" x1="633" x2="629" y1="117" y2="121"/>
<line fill="#000000" stroke="#000000" stroke-width="1" x1="626" x2="623" y1="125" y2="128"/>
<line fill="#000000" stroke="#000000" stroke-width="1" x1="619" x2="616" y1="132" y2="136"/>
<line fill="#000000" stroke="#000000" stroke-width="1" x1="612" x2="609" y1="139" y2="143"/>
<line fill="#000000" stroke="#000000" stroke-width="1" x1="606" x2="602" y1="147" y2="150"/>
<line fill="#000000" stroke="#000000" stroke-width="1" x1="599" x2="595" y1="154" y2="158"/>
<line fill="#000000" stroke="#000000" stroke-width="1" x1="592" x2="589" y1="161" y2="165"/>
<line fill="#000000" stroke="#000000" stroke-width="1" x1="585" x2="582" y1="169" y2="172"/>
<line fill="#000000" stroke="#000000" stroke-width="1" x1="578" x2="575" y1="176" y2="180"/>
<line fill="#000000" stroke="#000000" stroke-width="1" x1="572" x2="568" y1="183" y2="187"/>
<line fill="#000000" stroke="#000000" stroke-width="1" x1="565" x2="561" y1="191" y2="195"/>
<line fill="#000000" stroke="#000000" stroke-width="1" x1="558" x2="555" y1="198" y2="202"/>
<line fill="#000000" stroke="#000000" stroke-width="1" x1="551" x2="548" y1="206" y2="209"/>
<line fill="#000000" stroke="#000000" stroke-width="1" x1="544" x2="541" y1="213" y2="217"/>
<line fill="#000000" stroke="#000000" stroke-width="1" x1="538" x2="535" y1="220" y2="223"/>
<line fill="#000000" stroke="#000000" stroke-width="1" x1="538" x2="535" y1="209" y2="223"/>
<line fill="#000000" stroke="#000000" stroke-width="1" x1="548" x2="535" y1="218" y2="223"/>
<line fill="#000000" stroke="#000000" stroke-width="1" x1="118" x2="438" y1="326" y2="254"/>
<line fill="#000000" stroke="#000000" stroke-width="1" x1="582" x2="902" y1="254" y2="326"/>
<line fill="#000000" stroke="#000000" stroke-width="1" x1="662" x2="902" y1="374" y2="326"/>
</svg>
