<?xml version="1.0" encoding="utf-8" ?>
<!DOCTYPE svg PUBLIC "-//W3C//DTD SVG 1.1//EN" "http://www.w3.org/Graphics/SVG/1.1/DTD/svg11.dtd">
<svg height="512" version="1.1" width="706" xmlns="http://www.w3.org/2000/svg">
<ellipse cx="158" cy="70" fill="#000000" rx="8.0" ry="8.0" stroke="#000000" stroke-width="1"/>
<rect fill="#00ff" height="44" rx="16" ry="16" stroke="#00ff" stroke-width="1" width="116" x="254" y="110"/>
<rect fill="#ffffff" height="44" rx="16" ry="16" stroke="#000000" stroke-width="1" width="116" x="254" y="110"/>
<rect fill="#ffffff" height="42" rx="16" ry="16" stroke="#ffffff" stroke-width="1" width="114" x="255" y="111"/>
<text font-family="Dialog" font-size="12" x="290" y="123">
default</text>
<line fill="#000000" stroke="#000000" stroke-width="1" x1="254" x2="369" y1="133" y2="133"/>
<polyline fill="none" points="166,73 254,110" stroke="#000000" stroke-width="1"/>
<line fill="#000000" stroke="#000000" stroke-width="1" x1="240" x2="254" y1="111" y2="110"/>
<line fill="#000000" stroke="#000000" stroke-width="1" x1="245" x2="254" y1="98" y2="110"/>
<text font-family="Dialog" font-size="12" x="161" y="108">
start</text>
<rect fill="#00ff" height="44" rx="16" ry="16" stroke="#00ff" stroke-width="1" width="70" x="622" y="110"/>
<rect fill="#ffffff" height="44" rx="16" ry="16" stroke="#000000" stroke-width="1" width="70" x="622" y="110"/>
<rect fill="#ffffff" height="42" rx="16" ry="16" stroke="#ffffff" stroke-width="1" width="68" x="623" y="111"/>
<text font-family="Dialog" font-size="12" x="631" y="123">
creation</text>
<line fill="#000000" stroke="#000000" stroke-width="1" x1="622" x2="691" y1="133" y2="133"/>
<polyline fill="none" points="369,126 622,126" stroke="#000000" stroke-width="1"/>
<line fill="#000000" stroke="#000000" stroke-width="1" x1="610" x2="622" y1="133" y2="126"/>
<line fill="#000000" stroke="#000000" stroke-width="1" x1="610" x2="622" y1="119" y2="126"/>
<text font-family="Dialog" font-size="12" x="469" y="121">
create()</text>
<polyline fill="none" points="622,142 369,142" stroke="#000000" stroke-width="1"/>
<line fill="#000000" stroke="#000000" stroke-width="1" x1="381" x2="369" y1="135" y2="142"/>
<line fill="#000000" stroke="#000000" stroke-width="1" x1="381" x2="369" y1="149" y2="142"/>
<text font-family="Dialog" font-size="12" x="494" y="161">
empty</text>
<rect fill="#00ff" height="44" rx="16" ry="16" stroke="#00ff" stroke-width="1" width="113" x="438" y="14"/>
<rect fill="#ffffff" height="44" rx="16" ry="16" stroke="#000000" stroke-width="1" width="113" x="438" y="14"/>
<rect fill="#ffffff" height="42" rx="16" ry="16" stroke="#ffffff" stroke-width="1" width="111" x="439" y="15"/>
<text font-family="Dialog" font-size="12" x="474" y="27">
import</text>
<line fill="#000000" stroke="#000000" stroke-width="1" x1="438" x2="550" y1="37" y2="37"/>
<polyline fill="none" points="622,110 550,57" stroke="#000000" stroke-width="1"/>
<line fill="#000000" stroke="#000000" stroke-width="1" x1="563" x2="550" y1="58" y2="57"/>
<line fill="#000000" stroke="#000000" stroke-width="1" x1="555" x2="550" y1="69" y2="57"/>
<text font-family="Dialog" font-size="12" x="580" y="75">
open</text>
<polyline fill="none" points="438,57 369,110" stroke="#000000" stroke-width="1"/>
<line fill="#000000" stroke="#000000" stroke-width="1" x1="374" x2="369" y1="97" y2="110"/>
<line fill="#000000" stroke="#000000" stroke-width="1" x1="382" x2="369" y1="108" y2="110"/>
<text font-family="Dialog" font-size="12" x="422" y="88">
return</text>
<rect fill="#00ff" height="44" rx="16" ry="16" stroke="#00ff" stroke-width="1" width="113" x="246" y="246"/>
<rect fill="#ffffff" height="44" rx="16" ry="16" stroke="#000000" stroke-width="1" width="113" x="246" y="246"/>
<rect fill="#ffffff" height="42" rx="16" ry="16" stroke="#ffffff" stroke-width="1" width="111" x="247" y="247"/>
<text font-family="Dialog" font-size="12" x="267" y="259">
manipulate</text>
<line fill="#000000" stroke="#000000" stroke-width="1" x1="246" x2="358" y1="269" y2="269"/>
<rect fill="#00ff" height="44" rx="16" ry="16" stroke="#00ff" stroke-width="1" width="113" x="262" y="14"/>
<rect fill="#ffffff" height="44" rx="16" ry="16" stroke="#000000" stroke-width="1" width="113" x="262" y="14"/>
<rect fill="#ffffff" height="42" rx="16" ry="16" stroke="#ffffff" stroke-width="1" width="111" x="263" y="15"/>
<text font-family="Dialog" font-size="12" x="302" y="27">
show</text>
<line fill="#000000" stroke="#000000" stroke-width="1" x1="262" x2="374" y1="37" y2="37"/>
<polyline fill="none" points="286,110 286,57" stroke="#000000" stroke-width="1"/>
<line fill="#000000" stroke="#000000" stroke-width="1" x1="293" x2="286" y1="69" y2="57"/>
<line fill="#000000" stroke="#000000" stroke-width="1" x1="279" x2="286" y1="69" y2="57"/>
<text font-family="Dialog" font-size="12" x="245" y="89">
return</text>
<polyline fill="none" points="342,57 342,110" stroke="#000000" stroke-width="1"/>
<line fill="#000000" stroke="#000000" stroke-width="1" x1="335" x2="342" y1="98" y2="110"/>
<line fill="#000000" stroke="#000000" stroke-width="1" x1="349" x2="342" y1="98" y2="110"/>
<text font-family="Dialog" font-size="12" x="344" y="88">
show</text>
<polyline fill="none" points="302,153 302,246" stroke="#000000" stroke-width="1"/>
<line fill="#000000" stroke="#000000" stroke-width="1" x1="295" x2="302" y1="234" y2="246"/>
<line fill="#000000" stroke="#000000" stroke-width="1" x1="309" x2="302" y1="234" y2="246"/>
<polyline fill="none" points="318,246 318,153" stroke="#000000" stroke-width="1"/>
<line fill="#000000" stroke="#000000" stroke-width="1" x1="325" x2="318" y1="165" y2="153"/>
<line fill="#000000" stroke="#000000" stroke-width="1" x1="311" x2="318" y1="165" y2="153"/>
<rect fill="#00ff" height="44" rx="16" ry="16" stroke="#00ff" stroke-width="1" width="113" x="110" y="406"/>
<rect fill="#ffffff" height="44" rx="16" ry="16" stroke="#000000" stroke-width="1" width="113" x="110" y="406"/>
<rect fill="#ffffff" height="42" rx="16" ry="16" stroke="#ffffff" stroke-width="1" width="111" x="111" y="407"/>
<text font-family="Dialog" font-size="12" x="147" y="419">
rotate</text>
<line fill="#000000" stroke="#000000" stroke-width="1" x1="110" x2="222" y1="429" y2="429"/>
<rect fill="#00ff" height="44" rx="16" ry="16" stroke="#00ff" stroke-width="1" width="113" x="278" y="454"/>
<rect fill="#ffffff" height="44" rx="16" ry="16" stroke="#000000" stroke-width="1" width="113" x="278" y="454"/>
<rect fill="#ffffff" height="42" rx="16" ry="16" stroke="#ffffff" stroke-width="1" width="111" x="279" y="455"/>
<text font-family="Dialog" font-size="12" x="316" y="467">
resize</text>
<line fill="#000000" stroke="#000000" stroke-width="1" x1="278" x2="390" y1="477" y2="477"/>
<rect fill="#00ff" height="44" rx="16" ry="16" stroke="#00ff" stroke-width="1" width="125" x="414" y="246"/>
<rect fill="#ffffff" height="44" rx="16" ry="16" stroke="#000000" stroke-width="1" width="125" x="414" y="246"/>
<rect fill="#ffffff" height="42" rx="16" ry="16" stroke="#ffffff" stroke-width="1" width="123" x="415" y="247"/>
<text font-family="Dialog" font-size="12" x="420" y="259">
changeResoultion</text>
<line fill="#000000" stroke="#000000" stroke-width="1" x1="414" x2="538" y1="269" y2="269"/>
<rect fill="#00ff" height="44" rx="16" ry="16" stroke="#00ff" stroke-width="1" width="113" x="342" y="390"/>
<rect fill="#ffffff" height="44" rx="16" ry="16" stroke="#000000" stroke-width="1" width="113" x="342" y="390"/>
<rect fill="#ffffff" height="42" rx="16" ry="16" stroke="#ffffff" stroke-width="1" width="111" x="343" y="391"/>
<text font-family="Dialog" font-size="12" x="382" y="403">
paint</text>
<line fill="#000000" stroke="#000000" stroke-width="1" x1="342" x2="454" y1="413" y2="413"/>
<rect fill="#00ff" height="44" rx="16" ry="16" stroke="#00ff" stroke-width="1" width="113" x="70" y="158"/>
<rect fill="#ffffff" height="44" rx="16" ry="16" stroke="#000000" stroke-width="1" width="113" x="70" y="158"/>
<rect fill="#ffffff" height="42" rx="16" ry="16" stroke="#ffffff" stroke-width="1" width="111" x="71" y="159"/>
<text font-family="Dialog" font-size="12" x="113" y="171">
light</text>
<line fill="#000000" stroke="#000000" stroke-width="1" x1="70" x2="182" y1="181" y2="181"/>
<rect fill="#00ff" height="44" rx="16" ry="16" stroke="#00ff" stroke-width="1" width="113" x="374" y="166"/>
<rect fill="#ffffff" height="44" rx="16" ry="16" stroke="#000000" stroke-width="1" width="113" x="374" y="166"/>
<rect fill="#ffffff" height="42" rx="16" ry="16" stroke="#ffffff" stroke-width="1" width="111" x="375" y="167"/>
<text font-family="Dialog" font-size="12" x="404" y="179">
contrast</text>
<line fill="#000000" stroke="#000000" stroke-width="1" x1="374" x2="486" y1="189" y2="189"/>
<rect fill="#00ff" height="44" rx="16" ry="16" stroke="#00ff" stroke-width="1" width="113" x="14" y="230"/>
<rect fill="#ffffff" height="44" rx="16" ry="16" stroke="#000000" stroke-width="1" width="113" x="14" y="230"/>
<rect fill="#ffffff" height="42" rx="16" ry="16" stroke="#ffffff" stroke-width="1" width="111" x="15" y="231"/>
<text font-family="Dialog" font-size="12" x="55" y="243">
color</text>
<line fill="#000000" stroke="#000000" stroke-width="1" x1="14" x2="126" y1="253" y2="253"/>
<polyline fill="none" points="126,254 246,254" stroke="#000000" stroke-width="1"/>
<line fill="#000000" stroke="#000000" stroke-width="1" x1="234" x2="246" y1="261" y2="254"/>
<line fill="#000000" stroke="#000000" stroke-width="1" x1="234" x2="246" y1="247" y2="254"/>
<polyline fill="none" points="246,273 126,273" stroke="#000000" stroke-width="1"/>
<line fill="#000000" stroke="#000000" stroke-width="1" x1="138" x2="126" y1="266" y2="273"/>
<line fill="#000000" stroke="#000000" stroke-width="1" x1="138" x2="126" y1="280" y2="273"/>
<polyline fill="none" points="310,289 310,454" stroke="#000000" stroke-width="1"/>
<line fill="#000000" stroke="#000000" stroke-width="1" x1="303" x2="310" y1="442" y2="454"/>
<line fill="#000000" stroke="#000000" stroke-width="1" x1="317" x2="310" y1="442" y2="454"/>
<polyline fill="none" points="294,454 294,289" stroke="#000000" stroke-width="1"/>
<line fill="#000000" stroke="#000000" stroke-width="1" x1="301" x2="294" y1="301" y2="289"/>
<line fill="#000000" stroke="#000000" stroke-width="1" x1="287" x2="294" y1="301" y2="289"/>
<polyline fill="none" points="222,422 270,422 270,289" stroke="#000000" stroke-width="1"/>
<line fill="#000000" stroke="#000000" stroke-width="1" x1="277" x2="270" y1="301" y2="289"/>
<line fill="#000000" stroke="#000000" stroke-width="1" x1="263" x2="270" y1="301" y2="289"/>
<polyline fill="none" points="246,289 190,342 190,406" stroke="#000000" stroke-width="1"/>
<line fill="#000000" stroke="#000000" stroke-width="1" x1="183" x2="190" y1="394" y2="406"/>
<line fill="#000000" stroke="#000000" stroke-width="1" x1="197" x2="190" y1="394" y2="406"/>
<polyline fill="none" points="358,278 414,278" stroke="#000000" stroke-width="1"/>
<line fill="#000000" stroke="#000000" stroke-width="1" x1="402" x2="414" y1="285" y2="278"/>
<line fill="#000000" stroke="#000000" stroke-width="1" x1="402" x2="414" y1="271" y2="278"/>
<polyline fill="none" points="414,262 358,262" stroke="#000000" stroke-width="1"/>
<line fill="#000000" stroke="#000000" stroke-width="1" x1="370" x2="358" y1="255" y2="262"/>
<line fill="#000000" stroke="#000000" stroke-width="1" x1="370" x2="358" y1="269" y2="262"/>
<polyline fill="none" points="350,246 350,198 374,198" stroke="#000000" stroke-width="1"/>
<line fill="#000000" stroke="#000000" stroke-width="1" x1="362" x2="374" y1="205" y2="198"/>
<line fill="#000000" stroke="#000000" stroke-width="1" x1="362" x2="374" y1="191" y2="198"/>
<polyline fill="none" points="374,182 334,182 334,246" stroke="#000000" stroke-width="1"/>
<line fill="#000000" stroke="#000000" stroke-width="1" x1="327" x2="334" y1="234" y2="246"/>
<line fill="#000000" stroke="#000000" stroke-width="1" x1="341" x2="334" y1="234" y2="246"/>
<polyline fill="none" points="270,246 270,190 182,190" stroke="#000000" stroke-width="1"/>
<line fill="#000000" stroke="#000000" stroke-width="1" x1="194" x2="182" y1="183" y2="190"/>
<line fill="#000000" stroke="#000000" stroke-width="1" x1="194" x2="182" y1="197" y2="190"/>
<polyline fill="none" points="182,174 286,174 286,246" stroke="#000000" stroke-width="1"/>
<line fill="#000000" stroke="#000000" stroke-width="1" x1="279" x2="286" y1="234" y2="246"/>
<line fill="#000000" stroke="#000000" stroke-width="1" x1="293" x2="286" y1="234" y2="246"/>
<polyline fill="none" points="350,289 350,390" stroke="#000000" stroke-width="1"/>
<line fill="#000000" stroke="#000000" stroke-width="1" x1="343" x2="350" y1="378" y2="390"/>
<line fill="#000000" stroke="#000000" stroke-width="1" x1="357" x2="350" y1="378" y2="390"/>
<polyline fill="none" points="342,398 326,398 326,289" stroke="#000000" stroke-width="1"/>
<line fill="#000000" stroke="#000000" stroke-width="1" x1="333" x2="326" y1="301" y2="289"/>
<line fill="#000000" stroke="#000000" stroke-width="1" x1="319" x2="326" y1="301" y2="289"/>
</svg>
