<?xml version="1.0" encoding="utf-8" ?>
<!DOCTYPE svg PUBLIC "-//W3C//DTD SVG 1.1//EN" "http://www.w3.org/Graphics/SVG/1.1/DTD/svg11.dtd">
<svg height="631" version="1.1" width="1314" xmlns="http://www.w3.org/2000/svg">
<line fill="#000000" stroke="#000000" stroke-width="1" x1="146" x2="146" y1="63" y2="68"/>
<line fill="#000000" stroke="#000000" stroke-width="1" x1="146" x2="146" y1="73" y2="78"/>
<line fill="#000000" stroke="#000000" stroke-width="1" x1="146" x2="146" y1="83" y2="88"/>
<line fill="#000000" stroke="#000000" stroke-width="1" x1="146" x2="146" y1="93" y2="98"/>
<line fill="#000000" stroke="#000000" stroke-width="1" x1="146" x2="146" y1="103" y2="108"/>
<line fill="#000000" stroke="#000000" stroke-width="1" x1="146" x2="146" y1="113" y2="118"/>
<line fill="#000000" stroke="#000000" stroke-width="1" x1="146" x2="146" y1="123" y2="128"/>
<line fill="#000000" stroke="#000000" stroke-width="1" x1="146" x2="146" y1="133" y2="138"/>
<line fill="#000000" stroke="#000000" stroke-width="1" x1="146" x2="146" y1="143" y2="148"/>
<line fill="#000000" stroke="#000000" stroke-width="1" x1="146" x2="146" y1="153" y2="158"/>
<line fill="#000000" stroke="#000000" stroke-width="1" x1="146" x2="146" y1="163" y2="168"/>
<line fill="#000000" stroke="#000000" stroke-width="1" x1="146" x2="146" y1="173" y2="178"/>
<line fill="#000000" stroke="#000000" stroke-width="1" x1="146" x2="146" y1="183" y2="188"/>
<line fill="#000000" stroke="#000000" stroke-width="1" x1="146" x2="146" y1="193" y2="198"/>
<line fill="#000000" stroke="#000000" stroke-width="1" x1="146" x2="146" y1="203" y2="208"/>
<line fill="#000000" stroke="#000000" stroke-width="1" x1="146" x2="146" y1="213" y2="218"/>
<line fill="#000000" stroke="#000000" stroke-width="1" x1="146" x2="146" y1="223" y2="228"/>
<line fill="#000000" stroke="#000000" stroke-width="1" x1="146" x2="146" y1="233" y2="238"/>
<line fill="#000000" stroke="#000000" stroke-width="1" x1="146" x2="146" y1="243" y2="248"/>
<line fill="#000000" stroke="#000000" stroke-width="1" x1="146" x2="146" y1="253" y2="258"/>
<line fill="#000000" stroke="#000000" stroke-width="1" x1="146" x2="146" y1="263" y2="268"/>
<line fill="#000000" stroke="#000000" stroke-width="1" x1="146" x2="146" y1="273" y2="278"/>
<line fill="#000000" stroke="#000000" stroke-width="1" x1="146" x2="146" y1="283" y2="288"/>
<line fill="#000000" stroke="#000000" stroke-width="1" x1="146" x2="146" y1="293" y2="298"/>
<line fill="#000000" stroke="#000000" stroke-width="1" x1="146" x2="146" y1="303" y2="308"/>
<line fill="#000000" stroke="#000000" stroke-width="1" x1="146" x2="146" y1="313" y2="318"/>
<line fill="#000000" stroke="#000000" stroke-width="1" x1="146" x2="146" y1="323" y2="328"/>
<line fill="#000000" stroke="#000000" stroke-width="1" x1="146" x2="146" y1="333" y2="338"/>
<line fill="#000000" stroke="#000000" stroke-width="1" x1="146" x2="146" y1="343" y2="348"/>
<line fill="#000000" stroke="#000000" stroke-width="1" x1="146" x2="146" y1="353" y2="358"/>
<line fill="#000000" stroke="#000000" stroke-width="1" x1="146" x2="146" y1="363" y2="368"/>
<line fill="#000000" stroke="#000000" stroke-width="1" x1="146" x2="146" y1="373" y2="378"/>
<line fill="#000000" stroke="#000000" stroke-width="1" x1="146" x2="146" y1="383" y2="388"/>
<line fill="#000000" stroke="#000000" stroke-width="1" x1="146" x2="146" y1="393" y2="398"/>
<line fill="#000000" stroke="#000000" stroke-width="1" x1="146" x2="146" y1="403" y2="408"/>
<line fill="#000000" stroke="#000000" stroke-width="1" x1="146" x2="146" y1="413" y2="418"/>
<line fill="#000000" stroke="#000000" stroke-width="1" x1="146" x2="146" y1="423" y2="428"/>
<line fill="#000000" stroke="#000000" stroke-width="1" x1="146" x2="146" y1="433" y2="438"/>
<line fill="#000000" stroke="#000000" stroke-width="1" x1="146" x2="146" y1="443" y2="448"/>
<line fill="#000000" stroke="#000000" stroke-width="1" x1="146" x2="146" y1="453" y2="458"/>
<line fill="#000000" stroke="#000000" stroke-width="1" x1="146" x2="146" y1="463" y2="468"/>
<line fill="#000000" stroke="#000000" stroke-width="1" x1="146" x2="146" y1="473" y2="478"/>
<line fill="#000000" stroke="#000000" stroke-width="1" x1="146" x2="146" y1="483" y2="488"/>
<line fill="#000000" stroke="#000000" stroke-width="1" x1="146" x2="146" y1="493" y2="498"/>
<line fill="#000000" stroke="#000000" stroke-width="1" x1="146" x2="146" y1="503" y2="508"/>
<line fill="#000000" stroke="#000000" stroke-width="1" x1="146" x2="146" y1="513" y2="518"/>
<line fill="#000000" stroke="#000000" stroke-width="1" x1="146" x2="146" y1="523" y2="528"/>
<line fill="#000000" stroke="#000000" stroke-width="1" x1="146" x2="146" y1="533" y2="538"/>
<line fill="#000000" stroke="#000000" stroke-width="1" x1="146" x2="146" y1="543" y2="548"/>
<line fill="#000000" stroke="#000000" stroke-width="1" x1="146" x2="146" y1="553" y2="558"/>
<line fill="#000000" stroke="#000000" stroke-width="1" x1="146" x2="146" y1="563" y2="568"/>
<line fill="#000000" stroke="#000000" stroke-width="1" x1="146" x2="146" y1="573" y2="578"/>
<line fill="#000000" stroke="#000000" stroke-width="1" x1="146" x2="146" y1="583" y2="588"/>
<line fill="#000000" stroke="#000000" stroke-width="1" x1="146" x2="146" y1="593" y2="598"/>
<line fill="#000000" stroke="#000000" stroke-width="1" x1="146" x2="146" y1="603" y2="608"/>
<line fill="#000000" stroke="#000000" stroke-width="1" x1="146" x2="146" y1="613" y2="616"/>
<rect fill="#ffffff" height="553" stroke="#ffffff" stroke-width="1" width="20" x="136" y="63"/>
<rect fill="none" height="553" stroke="#000000" stroke-width="1" width="20" x="136" y="63"/>
<rect fill="#ffffff" height="50" stroke="#ffffff" stroke-width="1" width="152" x="70" y="14"/>
<rect fill="none" height="50" stroke="#000000" stroke-width="1" width="152" x="70" y="14"/>
<text font-family="Dialog" font-size="12" x="97" y="27">
/InetractionTool</text>
<line fill="#000000" stroke="#000000" stroke-width="1" x1="521" x2="521" y1="63" y2="68"/>
<line fill="#000000" stroke="#000000" stroke-width="1" x1="521" x2="521" y1="73" y2="78"/>
<line fill="#000000" stroke="#000000" stroke-width="1" x1="521" x2="521" y1="83" y2="88"/>
<line fill="#000000" stroke="#000000" stroke-width="1" x1="521" x2="521" y1="93" y2="98"/>
<line fill="#000000" stroke="#000000" stroke-width="1" x1="521" x2="521" y1="103" y2="108"/>
<line fill="#000000" stroke="#000000" stroke-width="1" x1="521" x2="521" y1="113" y2="118"/>
<line fill="#000000" stroke="#000000" stroke-width="1" x1="521" x2="521" y1="123" y2="128"/>
<line fill="#000000" stroke="#000000" stroke-width="1" x1="521" x2="521" y1="133" y2="138"/>
<line fill="#000000" stroke="#000000" stroke-width="1" x1="521" x2="521" y1="143" y2="148"/>
<line fill="#000000" stroke="#000000" stroke-width="1" x1="521" x2="521" y1="153" y2="158"/>
<line fill="#000000" stroke="#000000" stroke-width="1" x1="521" x2="521" y1="163" y2="168"/>
<line fill="#000000" stroke="#000000" stroke-width="1" x1="521" x2="521" y1="173" y2="178"/>
<line fill="#000000" stroke="#000000" stroke-width="1" x1="521" x2="521" y1="183" y2="188"/>
<line fill="#000000" stroke="#000000" stroke-width="1" x1="521" x2="521" y1="193" y2="198"/>
<line fill="#000000" stroke="#000000" stroke-width="1" x1="521" x2="521" y1="203" y2="208"/>
<line fill="#000000" stroke="#000000" stroke-width="1" x1="521" x2="521" y1="213" y2="218"/>
<line fill="#000000" stroke="#000000" stroke-width="1" x1="521" x2="521" y1="223" y2="228"/>
<line fill="#000000" stroke="#000000" stroke-width="1" x1="521" x2="521" y1="233" y2="238"/>
<line fill="#000000" stroke="#000000" stroke-width="1" x1="521" x2="521" y1="243" y2="248"/>
<line fill="#000000" stroke="#000000" stroke-width="1" x1="521" x2="521" y1="253" y2="258"/>
<line fill="#000000" stroke="#000000" stroke-width="1" x1="521" x2="521" y1="263" y2="268"/>
<line fill="#000000" stroke="#000000" stroke-width="1" x1="521" x2="521" y1="273" y2="278"/>
<line fill="#000000" stroke="#000000" stroke-width="1" x1="521" x2="521" y1="283" y2="288"/>
<line fill="#000000" stroke="#000000" stroke-width="1" x1="521" x2="521" y1="293" y2="298"/>
<line fill="#000000" stroke="#000000" stroke-width="1" x1="521" x2="521" y1="303" y2="308"/>
<line fill="#000000" stroke="#000000" stroke-width="1" x1="521" x2="521" y1="313" y2="318"/>
<line fill="#000000" stroke="#000000" stroke-width="1" x1="521" x2="521" y1="323" y2="328"/>
<line fill="#000000" stroke="#000000" stroke-width="1" x1="521" x2="521" y1="333" y2="338"/>
<line fill="#000000" stroke="#000000" stroke-width="1" x1="521" x2="521" y1="343" y2="348"/>
<line fill="#000000" stroke="#000000" stroke-width="1" x1="521" x2="521" y1="353" y2="358"/>
<line fill="#000000" stroke="#000000" stroke-width="1" x1="521" x2="521" y1="363" y2="368"/>
<line fill="#000000" stroke="#000000" stroke-width="1" x1="521" x2="521" y1="373" y2="378"/>
<line fill="#000000" stroke="#000000" stroke-width="1" x1="521" x2="521" y1="383" y2="388"/>
<line fill="#000000" stroke="#000000" stroke-width="1" x1="521" x2="521" y1="393" y2="398"/>
<line fill="#000000" stroke="#000000" stroke-width="1" x1="521" x2="521" y1="403" y2="408"/>
<line fill="#000000" stroke="#000000" stroke-width="1" x1="521" x2="521" y1="413" y2="418"/>
<line fill="#000000" stroke="#000000" stroke-width="1" x1="521" x2="521" y1="423" y2="428"/>
<line fill="#000000" stroke="#000000" stroke-width="1" x1="521" x2="521" y1="433" y2="438"/>
<line fill="#000000" stroke="#000000" stroke-width="1" x1="521" x2="521" y1="443" y2="448"/>
<line fill="#000000" stroke="#000000" stroke-width="1" x1="521" x2="521" y1="453" y2="458"/>
<line fill="#000000" stroke="#000000" stroke-width="1" x1="521" x2="521" y1="463" y2="468"/>
<line fill="#000000" stroke="#000000" stroke-width="1" x1="521" x2="521" y1="473" y2="478"/>
<line fill="#000000" stroke="#000000" stroke-width="1" x1="521" x2="521" y1="483" y2="488"/>
<line fill="#000000" stroke="#000000" stroke-width="1" x1="521" x2="521" y1="493" y2="498"/>
<line fill="#000000" stroke="#000000" stroke-width="1" x1="521" x2="521" y1="503" y2="508"/>
<line fill="#000000" stroke="#000000" stroke-width="1" x1="521" x2="521" y1="513" y2="518"/>
<line fill="#000000" stroke="#000000" stroke-width="1" x1="521" x2="521" y1="523" y2="528"/>
<line fill="#000000" stroke="#000000" stroke-width="1" x1="521" x2="521" y1="533" y2="538"/>
<line fill="#000000" stroke="#000000" stroke-width="1" x1="521" x2="521" y1="543" y2="548"/>
<line fill="#000000" stroke="#000000" stroke-width="1" x1="521" x2="521" y1="553" y2="558"/>
<line fill="#000000" stroke="#000000" stroke-width="1" x1="521" x2="521" y1="563" y2="568"/>
<line fill="#000000" stroke="#000000" stroke-width="1" x1="521" x2="521" y1="573" y2="578"/>
<line fill="#000000" stroke="#000000" stroke-width="1" x1="521" x2="521" y1="583" y2="588"/>
<line fill="#000000" stroke="#000000" stroke-width="1" x1="521" x2="521" y1="593" y2="598"/>
<line fill="#000000" stroke="#000000" stroke-width="1" x1="521" x2="521" y1="603" y2="608"/>
<rect fill="#ffffff" height="550" stroke="#ffffff" stroke-width="1" width="20" x="511" y="63"/>
<rect fill="none" height="550" stroke="#000000" stroke-width="1" width="20" x="511" y="63"/>
<rect fill="#ffffff" height="50" stroke="#ffffff" stroke-width="1" width="150" x="446" y="14"/>
<rect fill="none" height="50" stroke="#000000" stroke-width="1" width="150" x="446" y="14"/>
<text font-family="Dialog" font-size="12" x="466" y="27">
/ManipulationTool</text>
<line fill="#000000" stroke="#000000" stroke-width="1" x1="841" x2="841" y1="190" y2="195"/>
<line fill="#000000" stroke="#000000" stroke-width="1" x1="841" x2="841" y1="200" y2="205"/>
<line fill="#000000" stroke="#000000" stroke-width="1" x1="841" x2="841" y1="210" y2="215"/>
<line fill="#000000" stroke="#000000" stroke-width="1" x1="841" x2="841" y1="220" y2="225"/>
<line fill="#000000" stroke="#000000" stroke-width="1" x1="841" x2="841" y1="230" y2="235"/>
<line fill="#000000" stroke="#000000" stroke-width="1" x1="841" x2="841" y1="240" y2="245"/>
<line fill="#000000" stroke="#000000" stroke-width="1" x1="841" x2="841" y1="250" y2="255"/>
<line fill="#000000" stroke="#000000" stroke-width="1" x1="841" x2="841" y1="260" y2="265"/>
<line fill="#000000" stroke="#000000" stroke-width="1" x1="841" x2="841" y1="270" y2="275"/>
<line fill="#000000" stroke="#000000" stroke-width="1" x1="841" x2="841" y1="280" y2="285"/>
<line fill="#000000" stroke="#000000" stroke-width="1" x1="841" x2="841" y1="290" y2="295"/>
<line fill="#000000" stroke="#000000" stroke-width="1" x1="841" x2="841" y1="300" y2="305"/>
<line fill="#000000" stroke="#000000" stroke-width="1" x1="841" x2="841" y1="310" y2="315"/>
<line fill="#000000" stroke="#000000" stroke-width="1" x1="841" x2="841" y1="320" y2="325"/>
<line fill="#000000" stroke="#000000" stroke-width="1" x1="841" x2="841" y1="330" y2="335"/>
<line fill="#000000" stroke="#000000" stroke-width="1" x1="841" x2="841" y1="340" y2="345"/>
<line fill="#000000" stroke="#000000" stroke-width="1" x1="841" x2="841" y1="350" y2="355"/>
<line fill="#000000" stroke="#000000" stroke-width="1" x1="841" x2="841" y1="360" y2="365"/>
<line fill="#000000" stroke="#000000" stroke-width="1" x1="841" x2="841" y1="370" y2="375"/>
<line fill="#000000" stroke="#000000" stroke-width="1" x1="841" x2="841" y1="380" y2="385"/>
<line fill="#000000" stroke="#000000" stroke-width="1" x1="841" x2="841" y1="390" y2="395"/>
<line fill="#000000" stroke="#000000" stroke-width="1" x1="841" x2="841" y1="400" y2="405"/>
<line fill="#000000" stroke="#000000" stroke-width="1" x1="841" x2="841" y1="410" y2="415"/>
<line fill="#000000" stroke="#000000" stroke-width="1" x1="841" x2="841" y1="420" y2="425"/>
<line fill="#000000" stroke="#000000" stroke-width="1" x1="841" x2="841" y1="430" y2="435"/>
<line fill="#000000" stroke="#000000" stroke-width="1" x1="841" x2="841" y1="440" y2="445"/>
<rect fill="#ffffff" height="256" stroke="#ffffff" stroke-width="1" width="20" x="831" y="190"/>
<rect fill="none" height="256" stroke="#000000" stroke-width="1" width="20" x="831" y="190"/>
<line fill="#000000" stroke="#000000" stroke-width="1" x1="831" x2="851" y1="446" y2="466"/>
<line fill="#000000" stroke="#000000" stroke-width="1" x1="831" x2="851" y1="466" y2="446"/>
<rect fill="#ffffff" height="50" stroke="#ffffff" stroke-width="1" width="150" x="766" y="141"/>
<rect fill="none" height="50" stroke="#000000" stroke-width="1" width="150" x="766" y="141"/>
<text font-family="Dialog" font-size="12" x="823" y="154">
/Paint</text>
<line fill="#000000" stroke="#000000" stroke-width="1" x1="1225" x2="1225" y1="63" y2="68"/>
<line fill="#000000" stroke="#000000" stroke-width="1" x1="1225" x2="1225" y1="73" y2="78"/>
<line fill="#000000" stroke="#000000" stroke-width="1" x1="1225" x2="1225" y1="83" y2="88"/>
<line fill="#000000" stroke="#000000" stroke-width="1" x1="1225" x2="1225" y1="93" y2="98"/>
<line fill="#000000" stroke="#000000" stroke-width="1" x1="1225" x2="1225" y1="103" y2="108"/>
<line fill="#000000" stroke="#000000" stroke-width="1" x1="1225" x2="1225" y1="113" y2="118"/>
<line fill="#000000" stroke="#000000" stroke-width="1" x1="1225" x2="1225" y1="123" y2="128"/>
<line fill="#000000" stroke="#000000" stroke-width="1" x1="1225" x2="1225" y1="133" y2="138"/>
<line fill="#000000" stroke="#000000" stroke-width="1" x1="1225" x2="1225" y1="143" y2="148"/>
<line fill="#000000" stroke="#000000" stroke-width="1" x1="1225" x2="1225" y1="153" y2="158"/>
<line fill="#000000" stroke="#000000" stroke-width="1" x1="1225" x2="1225" y1="163" y2="168"/>
<line fill="#000000" stroke="#000000" stroke-width="1" x1="1225" x2="1225" y1="173" y2="178"/>
<line fill="#000000" stroke="#000000" stroke-width="1" x1="1225" x2="1225" y1="183" y2="188"/>
<line fill="#000000" stroke="#000000" stroke-width="1" x1="1225" x2="1225" y1="193" y2="198"/>
<line fill="#000000" stroke="#000000" stroke-width="1" x1="1225" x2="1225" y1="203" y2="208"/>
<line fill="#000000" stroke="#000000" stroke-width="1" x1="1225" x2="1225" y1="213" y2="218"/>
<line fill="#000000" stroke="#000000" stroke-width="1" x1="1225" x2="1225" y1="223" y2="228"/>
<line fill="#000000" stroke="#000000" stroke-width="1" x1="1225" x2="1225" y1="233" y2="238"/>
<line fill="#000000" stroke="#000000" stroke-width="1" x1="1225" x2="1225" y1="243" y2="248"/>
<line fill="#000000" stroke="#000000" stroke-width="1" x1="1225" x2="1225" y1="253" y2="258"/>
<line fill="#000000" stroke="#000000" stroke-width="1" x1="1225" x2="1225" y1="263" y2="268"/>
<line fill="#000000" stroke="#000000" stroke-width="1" x1="1225" x2="1225" y1="273" y2="278"/>
<line fill="#000000" stroke="#000000" stroke-width="1" x1="1225" x2="1225" y1="283" y2="288"/>
<line fill="#000000" stroke="#000000" stroke-width="1" x1="1225" x2="1225" y1="293" y2="298"/>
<line fill="#000000" stroke="#000000" stroke-width="1" x1="1225" x2="1225" y1="303" y2="308"/>
<line fill="#000000" stroke="#000000" stroke-width="1" x1="1225" x2="1225" y1="313" y2="318"/>
<line fill="#000000" stroke="#000000" stroke-width="1" x1="1225" x2="1225" y1="323" y2="328"/>
<line fill="#000000" stroke="#000000" stroke-width="1" x1="1225" x2="1225" y1="333" y2="338"/>
<line fill="#000000" stroke="#000000" stroke-width="1" x1="1225" x2="1225" y1="343" y2="348"/>
<line fill="#000000" stroke="#000000" stroke-width="1" x1="1225" x2="1225" y1="353" y2="358"/>
<line fill="#000000" stroke="#000000" stroke-width="1" x1="1225" x2="1225" y1="363" y2="368"/>
<line fill="#000000" stroke="#000000" stroke-width="1" x1="1225" x2="1225" y1="373" y2="378"/>
<line fill="#000000" stroke="#000000" stroke-width="1" x1="1225" x2="1225" y1="383" y2="388"/>
<line fill="#000000" stroke="#000000" stroke-width="1" x1="1225" x2="1225" y1="393" y2="398"/>
<line fill="#000000" stroke="#000000" stroke-width="1" x1="1225" x2="1225" y1="403" y2="408"/>
<line fill="#000000" stroke="#000000" stroke-width="1" x1="1225" x2="1225" y1="413" y2="418"/>
<line fill="#000000" stroke="#000000" stroke-width="1" x1="1225" x2="1225" y1="423" y2="428"/>
<line fill="#000000" stroke="#000000" stroke-width="1" x1="1225" x2="1225" y1="433" y2="438"/>
<line fill="#000000" stroke="#000000" stroke-width="1" x1="1225" x2="1225" y1="443" y2="448"/>
<line fill="#000000" stroke="#000000" stroke-width="1" x1="1225" x2="1225" y1="453" y2="458"/>
<line fill="#000000" stroke="#000000" stroke-width="1" x1="1225" x2="1225" y1="463" y2="468"/>
<line fill="#000000" stroke="#000000" stroke-width="1" x1="1225" x2="1225" y1="473" y2="478"/>
<line fill="#000000" stroke="#000000" stroke-width="1" x1="1225" x2="1225" y1="483" y2="488"/>
<line fill="#000000" stroke="#000000" stroke-width="1" x1="1225" x2="1225" y1="493" y2="498"/>
<line fill="#000000" stroke="#000000" stroke-width="1" x1="1225" x2="1225" y1="503" y2="508"/>
<line fill="#000000" stroke="#000000" stroke-width="1" x1="1225" x2="1225" y1="513" y2="518"/>
<line fill="#000000" stroke="#000000" stroke-width="1" x1="1225" x2="1225" y1="523" y2="528"/>
<line fill="#000000" stroke="#000000" stroke-width="1" x1="1225" x2="1225" y1="533" y2="538"/>
<line fill="#000000" stroke="#000000" stroke-width="1" x1="1225" x2="1225" y1="543" y2="548"/>
<line fill="#000000" stroke="#000000" stroke-width="1" x1="1225" x2="1225" y1="553" y2="558"/>
<line fill="#000000" stroke="#000000" stroke-width="1" x1="1225" x2="1225" y1="563" y2="568"/>
<line fill="#000000" stroke="#000000" stroke-width="1" x1="1225" x2="1225" y1="573" y2="578"/>
<line fill="#000000" stroke="#000000" stroke-width="1" x1="1225" x2="1225" y1="583" y2="588"/>
<line fill="#000000" stroke="#000000" stroke-width="1" x1="1225" x2="1225" y1="593" y2="598"/>
<line fill="#000000" stroke="#000000" stroke-width="1" x1="1225" x2="1225" y1="603" y2="608"/>
<rect fill="#ffffff" height="549" stroke="#ffffff" stroke-width="1" width="20" x="1215" y="63"/>
<rect fill="none" height="549" stroke="#000000" stroke-width="1" width="20" x="1215" y="63"/>
<rect fill="#ffffff" height="50" stroke="#ffffff" stroke-width="1" width="150" x="1150" y="14"/>
<rect fill="none" height="50" stroke="#000000" stroke-width="1" width="150" x="1150" y="14"/>
<text font-family="Dialog" font-size="12" x="1183" y="27">
/RasterImage</text>
<polyline fill="none" points="156,110 511,110" stroke="#000000" stroke-width="1"/>
<line fill="#000000" stroke="#000000" stroke-width="1" x1="499" x2="511" y1="117" y2="110"/>
<line fill="#000000" stroke="#000000" stroke-width="1" x1="499" x2="511" y1="103" y2="110"/>
<text font-family="Dialog" font-size="12" x="288" y="105">
paint()</text>
<polyline fill="none" points="531,166 766,166" stroke="#000000" stroke-width="1"/>
<polygon fill="#000000" points="766,166 754,173 754,159" stroke="#000000" stroke-width="1"/>
<polygon fill="none" points="766,166 754,173 754,159" stroke="#000000" stroke-width="1"/>
<text font-family="Dialog" font-size="12" x="602" y="161">
paint(data)</text>
<polyline fill="none" points="851,222 1215,222" stroke="#000000" stroke-width="1"/>
<line fill="#000000" stroke="#000000" stroke-width="1" x1="1203" x2="1215" y1="229" y2="222"/>
<line fill="#000000" stroke="#000000" stroke-width="1" x1="1203" x2="1215" y1="215" y2="222"/>
<text font-family="Dialog" font-size="12" x="986" y="217">
setPixel(koordinates)</text>
<line fill="#000000" stroke="#000000" stroke-width="1" x1="851" x2="856" y1="310" y2="310"/>
<line fill="#000000" stroke="#000000" stroke-width="1" x1="861" x2="866" y1="310" y2="310"/>
<line fill="#000000" stroke="#000000" stroke-width="1" x1="871" x2="876" y1="310" y2="310"/>
<line fill="#000000" stroke="#000000" stroke-width="1" x1="881" x2="886" y1="310" y2="310"/>
<line fill="#000000" stroke="#000000" stroke-width="1" x1="891" x2="896" y1="310" y2="310"/>
<line fill="#000000" stroke="#000000" stroke-width="1" x1="901" x2="906" y1="310" y2="310"/>
<line fill="#000000" stroke="#000000" stroke-width="1" x1="911" x2="916" y1="310" y2="310"/>
<line fill="#000000" stroke="#000000" stroke-width="1" x1="921" x2="926" y1="310" y2="310"/>
<line fill="#000000" stroke="#000000" stroke-width="1" x1="931" x2="936" y1="310" y2="310"/>
<line fill="#000000" stroke="#000000" stroke-width="1" x1="941" x2="946" y1="310" y2="310"/>
<line fill="#000000" stroke="#000000" stroke-width="1" x1="951" x2="956" y1="310" y2="310"/>
<line fill="#000000" stroke="#000000" stroke-width="1" x1="961" x2="966" y1="310" y2="310"/>
<line fill="#000000" stroke="#000000" stroke-width="1" x1="971" x2="976" y1="310" y2="310"/>
<line fill="#000000" stroke="#000000" stroke-width="1" x1="981" x2="986" y1="310" y2="310"/>
<line fill="#000000" stroke="#000000" stroke-width="1" x1="991" x2="996" y1="310" y2="310"/>
<line fill="#000000" stroke="#000000" stroke-width="1" x1="1001" x2="1006" y1="310" y2="310"/>
<line fill="#000000" stroke="#000000" stroke-width="1" x1="1011" x2="1016" y1="310" y2="310"/>
<line fill="#000000" stroke="#000000" stroke-width="1" x1="1021" x2="1026" y1="310" y2="310"/>
<line fill="#000000" stroke="#000000" stroke-width="1" x1="1031" x2="1036" y1="310" y2="310"/>
<line fill="#000000" stroke="#000000" stroke-width="1" x1="1041" x2="1046" y1="310" y2="310"/>
<line fill="#000000" stroke="#000000" stroke-width="1" x1="1051" x2="1056" y1="310" y2="310"/>
<line fill="#000000" stroke="#000000" stroke-width="1" x1="1061" x2="1066" y1="310" y2="310"/>
<line fill="#000000" stroke="#000000" stroke-width="1" x1="1071" x2="1076" y1="310" y2="310"/>
<line fill="#000000" stroke="#000000" stroke-width="1" x1="1081" x2="1086" y1="310" y2="310"/>
<line fill="#000000" stroke="#000000" stroke-width="1" x1="1091" x2="1096" y1="310" y2="310"/>
<line fill="#000000" stroke="#000000" stroke-width="1" x1="1101" x2="1106" y1="310" y2="310"/>
<line fill="#000000" stroke="#000000" stroke-width="1" x1="1111" x2="1116" y1="310" y2="310"/>
<line fill="#000000" stroke="#000000" stroke-width="1" x1="1121" x2="1126" y1="310" y2="310"/>
<line fill="#000000" stroke="#000000" stroke-width="1" x1="1131" x2="1136" y1="310" y2="310"/>
<line fill="#000000" stroke="#000000" stroke-width="1" x1="1141" x2="1146" y1="310" y2="310"/>
<line fill="#000000" stroke="#000000" stroke-width="1" x1="1151" x2="1156" y1="310" y2="310"/>
<line fill="#000000" stroke="#000000" stroke-width="1" x1="1161" x2="1166" y1="310" y2="310"/>
<line fill="#000000" stroke="#000000" stroke-width="1" x1="1171" x2="1176" y1="310" y2="310"/>
<line fill="#000000" stroke="#000000" stroke-width="1" x1="1181" x2="1186" y1="310" y2="310"/>
<line fill="#000000" stroke="#000000" stroke-width="1" x1="1191" x2="1196" y1="310" y2="310"/>
<line fill="#000000" stroke="#000000" stroke-width="1" x1="1201" x2="1206" y1="310" y2="310"/>
<line fill="#000000" stroke="#000000" stroke-width="1" x1="1211" x2="1215" y1="310" y2="310"/>
<line fill="#000000" stroke="#000000" stroke-width="1" x1="1203" x2="1215" y1="317" y2="310"/>
<line fill="#000000" stroke="#000000" stroke-width="1" x1="1203" x2="1215" y1="303" y2="310"/>
<line fill="#000000" stroke="#000000" stroke-width="1" x1="1215" x2="1210" y1="350" y2="350"/>
<line fill="#000000" stroke="#000000" stroke-width="1" x1="1205" x2="1200" y1="350" y2="350"/>
<line fill="#000000" stroke="#000000" stroke-width="1" x1="1195" x2="1190" y1="350" y2="350"/>
<line fill="#000000" stroke="#000000" stroke-width="1" x1="1185" x2="1180" y1="350" y2="350"/>
<line fill="#000000" stroke="#000000" stroke-width="1" x1="1175" x2="1170" y1="350" y2="350"/>
<line fill="#000000" stroke="#000000" stroke-width="1" x1="1165" x2="1160" y1="350" y2="350"/>
<line fill="#000000" stroke="#000000" stroke-width="1" x1="1155" x2="1150" y1="350" y2="350"/>
<line fill="#000000" stroke="#000000" stroke-width="1" x1="1145" x2="1140" y1="350" y2="350"/>
<line fill="#000000" stroke="#000000" stroke-width="1" x1="1135" x2="1130" y1="350" y2="350"/>
<line fill="#000000" stroke="#000000" stroke-width="1" x1="1125" x2="1120" y1="350" y2="350"/>
<line fill="#000000" stroke="#000000" stroke-width="1" x1="1115" x2="1110" y1="350" y2="350"/>
<line fill="#000000" stroke="#000000" stroke-width="1" x1="1105" x2="1100" y1="350" y2="350"/>
<line fill="#000000" stroke="#000000" stroke-width="1" x1="1095" x2="1090" y1="350" y2="350"/>
<line fill="#000000" stroke="#000000" stroke-width="1" x1="1085" x2="1080" y1="350" y2="350"/>
<line fill="#000000" stroke="#000000" stroke-width="1" x1="1075" x2="1070" y1="350" y2="350"/>
<line fill="#000000" stroke="#000000" stroke-width="1" x1="1065" x2="1060" y1="350" y2="350"/>
<line fill="#000000" stroke="#000000" stroke-width="1" x1="1055" x2="1050" y1="350" y2="350"/>
<line fill="#000000" stroke="#000000" stroke-width="1" x1="1045" x2="1040" y1="350" y2="350"/>
<line fill="#000000" stroke="#000000" stroke-width="1" x1="1035" x2="1030" y1="350" y2="350"/>
<line fill="#000000" stroke="#000000" stroke-width="1" x1="1025" x2="1020" y1="350" y2="350"/>
<line fill="#000000" stroke="#000000" stroke-width="1" x1="1015" x2="1010" y1="350" y2="350"/>
<line fill="#000000" stroke="#000000" stroke-width="1" x1="1005" x2="1000" y1="350" y2="350"/>
<line fill="#000000" stroke="#000000" stroke-width="1" x1="995" x2="990" y1="350" y2="350"/>
<line fill="#000000" stroke="#000000" stroke-width="1" x1="985" x2="980" y1="350" y2="350"/>
<line fill="#000000" stroke="#000000" stroke-width="1" x1="975" x2="970" y1="350" y2="350"/>
<line fill="#000000" stroke="#000000" stroke-width="1" x1="965" x2="960" y1="350" y2="350"/>
<line fill="#000000" stroke="#000000" stroke-width="1" x1="955" x2="950" y1="350" y2="350"/>
<line fill="#000000" stroke="#000000" stroke-width="1" x1="945" x2="940" y1="350" y2="350"/>
<line fill="#000000" stroke="#000000" stroke-width="1" x1="935" x2="930" y1="350" y2="350"/>
<line fill="#000000" stroke="#000000" stroke-width="1" x1="925" x2="920" y1="350" y2="350"/>
<line fill="#000000" stroke="#000000" stroke-width="1" x1="915" x2="910" y1="350" y2="350"/>
<line fill="#000000" stroke="#000000" stroke-width="1" x1="905" x2="900" y1="350" y2="350"/>
<line fill="#000000" stroke="#000000" stroke-width="1" x1="895" x2="890" y1="350" y2="350"/>
<line fill="#000000" stroke="#000000" stroke-width="1" x1="885" x2="880" y1="350" y2="350"/>
<line fill="#000000" stroke="#000000" stroke-width="1" x1="875" x2="870" y1="350" y2="350"/>
<line fill="#000000" stroke="#000000" stroke-width="1" x1="865" x2="860" y1="350" y2="350"/>
<line fill="#000000" stroke="#000000" stroke-width="1" x1="855" x2="851" y1="350" y2="350"/>
<line fill="#000000" stroke="#000000" stroke-width="1" x1="863" x2="851" y1="343" y2="350"/>
<line fill="#000000" stroke="#000000" stroke-width="1" x1="863" x2="851" y1="357" y2="350"/>
<line fill="#000000" stroke="#000000" stroke-width="1" x1="831" x2="826" y1="390" y2="390"/>
<line fill="#000000" stroke="#000000" stroke-width="1" x1="821" x2="816" y1="390" y2="390"/>
<line fill="#000000" stroke="#000000" stroke-width="1" x1="811" x2="806" y1="390" y2="390"/>
<line fill="#000000" stroke="#000000" stroke-width="1" x1="801" x2="796" y1="390" y2="390"/>
<line fill="#000000" stroke="#000000" stroke-width="1" x1="791" x2="786" y1="390" y2="390"/>
<line fill="#000000" stroke="#000000" stroke-width="1" x1="781" x2="776" y1="390" y2="390"/>
<line fill="#000000" stroke="#000000" stroke-width="1" x1="771" x2="766" y1="390" y2="390"/>
<line fill="#000000" stroke="#000000" stroke-width="1" x1="761" x2="756" y1="390" y2="390"/>
<line fill="#000000" stroke="#000000" stroke-width="1" x1="751" x2="746" y1="390" y2="390"/>
<line fill="#000000" stroke="#000000" stroke-width="1" x1="741" x2="736" y1="390" y2="390"/>
<line fill="#000000" stroke="#000000" stroke-width="1" x1="731" x2="726" y1="390" y2="390"/>
<line fill="#000000" stroke="#000000" stroke-width="1" x1="721" x2="716" y1="390" y2="390"/>
<line fill="#000000" stroke="#000000" stroke-width="1" x1="711" x2="706" y1="390" y2="390"/>
<line fill="#000000" stroke="#000000" stroke-width="1" x1="701" x2="696" y1="390" y2="390"/>
<line fill="#000000" stroke="#000000" stroke-width="1" x1="691" x2="686" y1="390" y2="390"/>
<line fill="#000000" stroke="#000000" stroke-width="1" x1="681" x2="676" y1="390" y2="390"/>
<line fill="#000000" stroke="#000000" stroke-width="1" x1="671" x2="666" y1="390" y2="390"/>
<line fill="#000000" stroke="#000000" stroke-width="1" x1="661" x2="656" y1="390" y2="390"/>
<line fill="#000000" stroke="#000000" stroke-width="1" x1="651" x2="646" y1="390" y2="390"/>
<line fill="#000000" stroke="#000000" stroke-width="1" x1="641" x2="636" y1="390" y2="390"/>
<line fill="#000000" stroke="#000000" stroke-width="1" x1="631" x2="626" y1="390" y2="390"/>
<line fill="#000000" stroke="#000000" stroke-width="1" x1="621" x2="616" y1="390" y2="390"/>
<line fill="#000000" stroke="#000000" stroke-width="1" x1="611" x2="606" y1="390" y2="390"/>
<line fill="#000000" stroke="#000000" stroke-width="1" x1="601" x2="596" y1="390" y2="390"/>
<line fill="#000000" stroke="#000000" stroke-width="1" x1="591" x2="586" y1="390" y2="390"/>
<line fill="#000000" stroke="#000000" stroke-width="1" x1="581" x2="576" y1="390" y2="390"/>
<line fill="#000000" stroke="#000000" stroke-width="1" x1="571" x2="566" y1="390" y2="390"/>
<line fill="#000000" stroke="#000000" stroke-width="1" x1="561" x2="556" y1="390" y2="390"/>
<line fill="#000000" stroke="#000000" stroke-width="1" x1="551" x2="546" y1="390" y2="390"/>
<line fill="#000000" stroke="#000000" stroke-width="1" x1="541" x2="536" y1="390" y2="390"/>
<line fill="#000000" stroke="#000000" stroke-width="1" x1="543" x2="531" y1="383" y2="390"/>
<line fill="#000000" stroke="#000000" stroke-width="1" x1="543" x2="531" y1="397" y2="390"/>
<polyline fill="none" points="531,446 831,446" stroke="#000000" stroke-width="1"/>
<polygon fill="#000000" points="831,446 819,453 819,439" stroke="#000000" stroke-width="1"/>
<polygon fill="none" points="831,446 819,453 819,439" stroke="#000000" stroke-width="1"/>
<text font-family="Dialog" font-size="12" x="636" y="441">
destruct</text>
<line fill="#000000" stroke="#000000" stroke-width="1" x1="511" x2="506" y1="470" y2="470"/>
<line fill="#000000" stroke="#000000" stroke-width="1" x1="501" x2="496" y1="470" y2="470"/>
<line fill="#000000" stroke="#000000" stroke-width="1" x1="491" x2="486" y1="470" y2="470"/>
<line fill="#000000" stroke="#000000" stroke-width="1" x1="481" x2="476" y1="470" y2="470"/>
<line fill="#000000" stroke="#000000" stroke-width="1" x1="471" x2="466" y1="470" y2="470"/>
<line fill="#000000" stroke="#000000" stroke-width="1" x1="461" x2="456" y1="470" y2="470"/>
<line fill="#000000" stroke="#000000" stroke-width="1" x1="451" x2="446" y1="470" y2="470"/>
<line fill="#000000" stroke="#000000" stroke-width="1" x1="441" x2="436" y1="470" y2="470"/>
<line fill="#000000" stroke="#000000" stroke-width="1" x1="431" x2="426" y1="470" y2="470"/>
<line fill="#000000" stroke="#000000" stroke-width="1" x1="421" x2="416" y1="470" y2="470"/>
<line fill="#000000" stroke="#000000" stroke-width="1" x1="411" x2="406" y1="470" y2="470"/>
<line fill="#000000" stroke="#000000" stroke-width="1" x1="401" x2="396" y1="470" y2="470"/>
<line fill="#000000" stroke="#000000" stroke-width="1" x1="391" x2="386" y1="470" y2="470"/>
<line fill="#000000" stroke="#000000" stroke-width="1" x1="381" x2="376" y1="470" y2="470"/>
<line fill="#000000" stroke="#000000" stroke-width="1" x1="371" x2="366" y1="470" y2="470"/>
<line fill="#000000" stroke="#000000" stroke-width="1" x1="361" x2="356" y1="470" y2="470"/>
<line fill="#000000" stroke="#000000" stroke-width="1" x1="351" x2="346" y1="470" y2="470"/>
<line fill="#000000" stroke="#000000" stroke-width="1" x1="341" x2="336" y1="470" y2="470"/>
<line fill="#000000" stroke="#000000" stroke-width="1" x1="331" x2="326" y1="470" y2="470"/>
<line fill="#000000" stroke="#000000" stroke-width="1" x1="321" x2="316" y1="470" y2="470"/>
<line fill="#000000" stroke="#000000" stroke-width="1" x1="311" x2="306" y1="470" y2="470"/>
<line fill="#000000" stroke="#000000" stroke-width="1" x1="301" x2="296" y1="470" y2="470"/>
<line fill="#000000" stroke="#000000" stroke-width="1" x1="291" x2="286" y1="470" y2="470"/>
<line fill="#000000" stroke="#000000" stroke-width="1" x1="281" x2="276" y1="470" y2="470"/>
<line fill="#000000" stroke="#000000" stroke-width="1" x1="271" x2="266" y1="470" y2="470"/>
<line fill="#000000" stroke="#000000" stroke-width="1" x1="261" x2="256" y1="470" y2="470"/>
<line fill="#000000" stroke="#000000" stroke-width="1" x1="251" x2="246" y1="470" y2="470"/>
<line fill="#000000" stroke="#000000" stroke-width="1" x1="241" x2="236" y1="470" y2="470"/>
<line fill="#000000" stroke="#000000" stroke-width="1" x1="231" x2="226" y1="470" y2="470"/>
<line fill="#000000" stroke="#000000" stroke-width="1" x1="221" x2="216" y1="470" y2="470"/>
<line fill="#000000" stroke="#000000" stroke-width="1" x1="211" x2="206" y1="470" y2="470"/>
<line fill="#000000" stroke="#000000" stroke-width="1" x1="201" x2="196" y1="470" y2="470"/>
<line fill="#000000" stroke="#000000" stroke-width="1" x1="191" x2="186" y1="470" y2="470"/>
<line fill="#000000" stroke="#000000" stroke-width="1" x1="181" x2="176" y1="470" y2="470"/>
<line fill="#000000" stroke="#000000" stroke-width="1" x1="171" x2="166" y1="470" y2="470"/>
<line fill="#000000" stroke="#000000" stroke-width="1" x1="161" x2="156" y1="470" y2="470"/>
<line fill="#000000" stroke="#000000" stroke-width="1" x1="168" x2="156" y1="463" y2="470"/>
<line fill="#000000" stroke="#000000" stroke-width="1" x1="168" x2="156" y1="477" y2="470"/>
<polyline fill="none" points="1215,270 851,270" stroke="#000000" stroke-width="1"/>
<line fill="#000000" stroke="#000000" stroke-width="1" x1="863" x2="851" y1="263" y2="270"/>
<line fill="#000000" stroke="#000000" stroke-width="1" x1="863" x2="851" y1="277" y2="270"/>
<text font-family="Dialog" font-size="12" x="988" y="265">
getColor()</text>
<text font-family="Dialog" font-size="12" x="107" y="115">
a</text>
<text font-family="Dialog" font-size="12" x="107" y="475">
b</text>
<text font-family="Dialog" font-size="12" x="16" y="539">
{b-a&lt;0.2s}</text>
</svg>
