<?xml version="1.0" encoding="utf-8" ?>
<!DOCTYPE svg PUBLIC "-//W3C//DTD SVG 1.1//EN" "http://www.w3.org/Graphics/SVG/1.1/DTD/svg11.dtd">
<svg height="1068" version="1.1" width="1044" xmlns="http://www.w3.org/2000/svg">
<polygon fill="#ffffff" points="14,14 980,14 980,37 1029,37 1029,1053 14,1053 14,14" stroke="#ffffff" stroke-width="1"/>
<rect fill="none" height="23" stroke="#000000" stroke-width="1" width="966" x="14" y="14"/>
<text font-family="Dialog" font-size="12" x="19" y="27">
InteliPhoto</text>
<rect fill="none" height="1016" stroke="#000000" stroke-width="1" width="1015" x="14" y="37"/>
<rect fill="#ffffff" height="136" stroke="#ffffff" stroke-width="1" width="113" x="614" y="214"/>
<rect fill="none" height="136" stroke="#000000" stroke-width="1" width="113" x="614" y="214"/>
<text font-family="Dialog" font-size="12" x="623" y="227">
InteractionTool</text>
<rect fill="#000000" height="1" stroke="#000000" stroke-width="1" width="113" x="614" y="237"/>
<text font-family="Dialog" font-size="12" x="618" y="251">
pic : Picture</text>
<rect fill="#000000" height="1" stroke="#000000" stroke-width="1" width="113" x="614" y="269"/>
<text font-family="Dialog" font-size="12" x="618" y="283">
show()</text>
<text font-family="Dialog" font-size="12" x="618" y="299">
useTool()</text>
<text font-family="Dialog" font-size="12" x="618" y="315">
createPic()</text>
<text font-family="Dialog" font-size="12" x="618" y="331">
importPic()</text>
<rect fill="#ffffff" height="136" stroke="#ffffff" stroke-width="1" width="178" x="598" y="414"/>
<rect fill="none" height="136" stroke="#000000" stroke-width="1" width="178" x="598" y="414"/>
<text font-family="Dialog" font-size="12" x="665" y="427">
Picture</text>
<rect fill="#000000" height="1" stroke="#000000" stroke-width="1" width="178" x="598" y="437"/>
<text font-family="Dialog" font-size="12" x="602" y="451">
currentLayer : RasterImage</text>
<text font-family="Dialog" font-size="12" x="602" y="467">
Name : String</text>
<text font-family="Dialog" font-size="12" x="602" y="483">
layers : RasterImage</text>
<rect fill="#000000" height="1" stroke="#000000" stroke-width="1" width="178" x="598" y="493"/>
<text font-family="Dialog" font-size="12" x="602" y="507">
addLayer()</text>
<text font-family="Dialog" font-size="12" x="602" y="523">
removelayer()</text>
<text font-family="Dialog" font-size="12" x="602" y="539">
getLayer()</text>
<polyline fill="none" points="670,349 670,414" stroke="#000000" stroke-width="1"/>
<text font-family="Dialog" font-size="12" x="673" y="389">
have</text>
<text font-family="Dialog" font-size="12" x="683" y="362">
1</text>
<text font-family="Dialog" font-size="12" x="676" y="409">
0..*</text>
<rect fill="#ffffff" height="120" stroke="#ffffff" stroke-width="1" width="137" x="614" y="654"/>
<rect fill="none" height="120" stroke="#000000" stroke-width="1" width="137" x="614" y="654"/>
<text font-family="Dialog" font-size="12" x="643" y="667">
RasterImage</text>
<rect fill="#000000" height="1" stroke="#000000" stroke-width="1" width="137" x="614" y="677"/>
<text font-family="Dialog" font-size="12" x="618" y="691">
colormap : Colormap</text>
<text font-family="Dialog" font-size="12" x="618" y="707">
pixels : Pixel</text>
<text font-family="Dialog" font-size="12" x="618" y="723">
width : Integer</text>
<text font-family="Dialog" font-size="12" x="618" y="739">
height : Integer</text>
<rect fill="#000000" height="1" stroke="#000000" stroke-width="1" width="137" x="614" y="749"/>
<text font-family="Dialog" font-size="12" x="618" y="763">
changePixel()</text>
<rect fill="#ffffff" height="120" stroke="#ffffff" stroke-width="1" width="137" x="838" y="662"/>
<rect fill="none" height="120" stroke="#000000" stroke-width="1" width="137" x="838" y="662"/>
<text font-family="Dialog" font-size="12" x="863" y="675">
ShapedImage</text>
<rect fill="#000000" height="1" stroke="#000000" stroke-width="1" width="137" x="838" y="685"/>
<text font-family="Dialog" font-size="12" x="842" y="699">
shape : Pixel</text>
<text font-family="Dialog" font-size="12" x="842" y="715">
colormap : Colormap</text>
<text font-family="Dialog" font-size="12" x="842" y="731">
pixels : Pixel</text>
<rect fill="#000000" height="1" stroke="#000000" stroke-width="1" width="137" x="838" y="741"/>
<text font-family="Dialog" font-size="12" x="842" y="755">
changePixel()</text>
<text font-family="Dialog" font-size="12" x="842" y="771">
changeShape()</text>
<polyline fill="none" points="838,701 750,701" stroke="#000000" stroke-width="1"/>
<polygon fill="#ffffff" points="750,701 762,694 762,708" stroke="#ffffff" stroke-width="1"/>
<polygon fill="none" points="750,701 762,694 762,708" stroke="#000000" stroke-width="1"/>
<rect fill="#ffffff" height="104" stroke="#ffffff" stroke-width="1" width="131" x="614" y="846"/>
<rect fill="none" height="104" stroke="#000000" stroke-width="1" width="131" x="614" y="846"/>
<text font-family="Dialog" font-size="12" x="650" y="859">
Colormap</text>
<rect fill="#000000" height="1" stroke="#000000" stroke-width="1" width="131" x="614" y="869"/>
<text font-family="Dialog" font-size="12" x="618" y="883">
pixelcolors : Integer</text>
<rect fill="#000000" height="1" stroke="#000000" stroke-width="1" width="131" x="614" y="893"/>
<text font-family="Dialog" font-size="12" x="618" y="907">
addColor()</text>
<text font-family="Dialog" font-size="12" x="618" y="923">
removeColor()</text>
<text font-family="Dialog" font-size="12" x="618" y="939">
getColor()</text>
<polyline fill="none" points="686,773 686,846" stroke="#000000" stroke-width="1"/>
<text font-family="Dialog" font-size="12" x="688" y="813">
uses</text>
<text font-family="Dialog" font-size="12" x="693" y="790">
0..*</text>
<text font-family="Dialog" font-size="12" x="699" y="837">
1</text>
<rect fill="#ffffff" height="72" stroke="#ffffff" stroke-width="1" width="113" x="870" y="870"/>
<rect fill="none" height="72" stroke="#000000" stroke-width="1" width="113" x="870" y="870"/>
<text font-family="Dialog" font-size="12" x="912" y="883">
Pixel</text>
<rect fill="#000000" height="1" stroke="#000000" stroke-width="1" width="113" x="870" y="893"/>
<text font-family="Dialog" font-size="12" x="874" y="907">
rgba : Integer</text>
<rect fill="#000000" height="1" stroke="#000000" stroke-width="1" width="113" x="870" y="917"/>
<text font-family="Dialog" font-size="12" x="874" y="931">
changePixel()</text>
<polyline fill="none" points="744,894 870,894" stroke="#000000" stroke-width="1"/>
<polygon fill="#ffffff" points="744,894 754,889 764,894 754,899" stroke="#ffffff" stroke-width="1"/>
<polygon fill="none" points="744,894 754,889 764,894 754,899" stroke="#000000" stroke-width="1"/>
<text font-family="Dialog" font-size="12" x="770" y="913">
handle</text>
<text font-family="Dialog" font-size="12" x="748" y="889">
0..*</text>
<text font-family="Dialog" font-size="12" x="825" y="889">
1..256</text>
<rect fill="#ffffff" height="67" stroke="#ffffff" stroke-width="1" width="105" x="414" y="678"/>
<rect fill="none" height="67" stroke="#000000" stroke-width="1" width="105" x="414" y="678"/>
<text font-family="Dialog" font-size="12" x="428" y="710">
ChangePixel</text>
<text font-family="Dialog" font-size="12" x="418" y="692">
&lt;&lt;interface&gt;&gt;</text>
<rect fill="#000000" height="1" stroke="#000000" stroke-width="1" width="105" x="414" y="720"/>
<text font-family="Dialog" font-size="12" x="418" y="734">
changePixel()</text>
<rect fill="#ffffff" height="83" stroke="#ffffff" stroke-width="1" width="117" x="406" y="854"/>
<rect fill="none" height="83" stroke="#000000" stroke-width="1" width="117" x="406" y="854"/>
<text font-family="Dialog" font-size="12" x="411" y="886">
ChangeColormap</text>
<text font-family="Dialog" font-size="12" x="416" y="868">
&lt;&lt;interface&gt;&gt;</text>
<rect fill="#000000" height="1" stroke="#000000" stroke-width="1" width="117" x="406" y="896"/>
<text font-family="Dialog" font-size="12" x="410" y="910">
addcolor()</text>
<text font-family="Dialog" font-size="12" x="410" y="926">
removecolor()</text>
<line fill="#000000" stroke="#000000" stroke-width="1" x1="614" x2="609" y1="710" y2="710"/>
<line fill="#000000" stroke="#000000" stroke-width="1" x1="604" x2="599" y1="710" y2="710"/>
<line fill="#000000" stroke="#000000" stroke-width="1" x1="594" x2="589" y1="710" y2="710"/>
<line fill="#000000" stroke="#000000" stroke-width="1" x1="584" x2="579" y1="710" y2="710"/>
<line fill="#000000" stroke="#000000" stroke-width="1" x1="574" x2="569" y1="710" y2="710"/>
<line fill="#000000" stroke="#000000" stroke-width="1" x1="564" x2="559" y1="710" y2="710"/>
<line fill="#000000" stroke="#000000" stroke-width="1" x1="554" x2="549" y1="710" y2="710"/>
<line fill="#000000" stroke="#000000" stroke-width="1" x1="544" x2="539" y1="710" y2="710"/>
<line fill="#000000" stroke="#000000" stroke-width="1" x1="534" x2="529" y1="710" y2="710"/>
<line fill="#000000" stroke="#000000" stroke-width="1" x1="524" x2="519" y1="710" y2="710"/>
<polygon fill="#ffffff" points="518,710 530,703 530,717" stroke="#ffffff" stroke-width="1"/>
<polygon fill="none" points="518,710 530,703 530,717" stroke="#000000" stroke-width="1"/>
<text font-family="Dialog" font-size="12" x="526" y="697">
&lt;&lt;realize&gt;&gt;</text>
<line fill="#000000" stroke="#000000" stroke-width="1" x1="614" x2="609" y1="894" y2="894"/>
<line fill="#000000" stroke="#000000" stroke-width="1" x1="604" x2="599" y1="894" y2="894"/>
<line fill="#000000" stroke="#000000" stroke-width="1" x1="594" x2="589" y1="894" y2="894"/>
<line fill="#000000" stroke="#000000" stroke-width="1" x1="584" x2="579" y1="894" y2="894"/>
<line fill="#000000" stroke="#000000" stroke-width="1" x1="574" x2="569" y1="894" y2="894"/>
<line fill="#000000" stroke="#000000" stroke-width="1" x1="564" x2="559" y1="894" y2="894"/>
<line fill="#000000" stroke="#000000" stroke-width="1" x1="554" x2="549" y1="894" y2="894"/>
<line fill="#000000" stroke="#000000" stroke-width="1" x1="544" x2="539" y1="894" y2="894"/>
<line fill="#000000" stroke="#000000" stroke-width="1" x1="534" x2="529" y1="894" y2="894"/>
<line fill="#000000" stroke="#000000" stroke-width="1" x1="524" x2="522" y1="894" y2="894"/>
<polygon fill="#ffffff" points="522,894 534,887 534,901" stroke="#ffffff" stroke-width="1"/>
<polygon fill="none" points="522,894 534,887 534,901" stroke="#000000" stroke-width="1"/>
<text font-family="Dialog" font-size="12" x="528" y="881">
&lt;&lt;realize&gt;&gt;</text>
<rect fill="#ffffff" height="88" stroke="#ffffff" stroke-width="1" width="123" x="286" y="206"/>
<rect fill="none" height="88" stroke="#000000" stroke-width="1" width="123" x="286" y="206"/>
<text font-family="Dialog" font-size="12" x="291" y="219">
ManipulationTools</text>
<rect fill="#000000" height="1" stroke="#000000" stroke-width="1" width="123" x="286" y="229"/>
<text font-family="Dialog" font-size="12" x="290" y="243">
tools : Tool</text>
<rect fill="#000000" height="1" stroke="#000000" stroke-width="1" width="123" x="286" y="253"/>
<text font-family="Dialog" font-size="12" x="290" y="267">
getTool()</text>
<text font-family="Dialog" font-size="12" x="290" y="283">
initTool()</text>
<rect fill="#ffffff" height="72" stroke="#ffffff" stroke-width="1" width="113" x="38" y="206"/>
<rect fill="none" height="72" stroke="#000000" stroke-width="1" width="113" x="38" y="206"/>
<text font-family="Dialog" font-size="12" font-style="italic" x="81" y="219">
Tool</text>
<rect fill="#000000" height="1" stroke="#000000" stroke-width="1" width="113" x="38" y="229"/>
<rect fill="#000000" height="1" stroke="#000000" stroke-width="1" width="113" x="38" y="253"/>
<text font-family="Dialog" font-size="12" x="42" y="267">
manipulate()</text>
<polyline fill="none" points="286,246 150,246" stroke="#000000" stroke-width="1"/>
<polygon fill="#000000" points="286,246 276,251 266,246 276,241" stroke="#000000" stroke-width="1"/>
<polygon fill="none" points="286,246 276,251 266,246 276,241" stroke="#000000" stroke-width="1"/>
<text font-family="Dialog" font-size="12" x="267" y="241">
1</text>
<text font-family="Dialog" font-size="12" x="154" y="241">
0..*</text>
<polyline fill="none" points="408,246 614,246" stroke="#000000" stroke-width="1"/>
<text font-family="Dialog" font-size="12" x="480" y="241">
uses</text>
<text font-family="Dialog" font-size="12" x="419" y="241">
1</text>
<text font-family="Dialog" font-size="12" x="595" y="241">
1</text>
<rect fill="#ffffff" height="88" stroke="#ffffff" stroke-width="1" width="120" x="158" y="326"/>
<rect fill="none" height="88" stroke="#000000" stroke-width="1" width="120" x="158" y="326"/>
<text font-family="Dialog" font-size="12" x="197" y="339">
Rotate</text>
<rect fill="#000000" height="1" stroke="#000000" stroke-width="1" width="120" x="158" y="349"/>
<text font-family="Dialog" font-size="12" x="162" y="363">
angle : Integer</text>
<text font-family="Dialog" font-size="12" x="162" y="379">
direction : Integer</text>
<rect fill="#000000" height="1" stroke="#000000" stroke-width="1" width="120" x="158" y="389"/>
<text font-family="Dialog" font-size="12" x="162" y="403">
manipulate()</text>
<rect fill="#ffffff" height="88" stroke="#ffffff" stroke-width="1" width="113" x="158" y="438"/>
<rect fill="none" height="88" stroke="#000000" stroke-width="1" width="113" x="158" y="438"/>
<text font-family="Dialog" font-size="12" x="195" y="451">
Resize</text>
<rect fill="#000000" height="1" stroke="#000000" stroke-width="1" width="113" x="158" y="461"/>
<text font-family="Dialog" font-size="12" x="162" y="475">
height : Integer</text>
<text font-family="Dialog" font-size="12" x="162" y="491">
width : Integer</text>
<rect fill="#000000" height="1" stroke="#000000" stroke-width="1" width="113" x="158" y="501"/>
<text font-family="Dialog" font-size="12" x="162" y="515">
manipulate()</text>
<rect fill="#ffffff" height="88" stroke="#ffffff" stroke-width="1" width="113" x="158" y="662"/>
<rect fill="none" height="88" stroke="#000000" stroke-width="1" width="113" x="158" y="662"/>
<text font-family="Dialog" font-size="12" x="198" y="675">
Paint</text>
<rect fill="#000000" height="1" stroke="#000000" stroke-width="1" width="113" x="158" y="685"/>
<text font-family="Dialog" font-size="12" x="162" y="699">
area : Integer</text>
<text font-family="Dialog" font-size="12" x="162" y="715">
color : Pixel</text>
<rect fill="#000000" height="1" stroke="#000000" stroke-width="1" width="113" x="158" y="725"/>
<text font-family="Dialog" font-size="12" x="162" y="739">
manipulate()</text>
<rect fill="#ffffff" height="88" stroke="#ffffff" stroke-width="1" width="124" x="158" y="550"/>
<rect fill="none" height="88" stroke="#000000" stroke-width="1" width="124" x="158" y="550"/>
<text font-family="Dialog" font-size="12" x="163" y="563">
ChangeResolution</text>
<rect fill="#000000" height="1" stroke="#000000" stroke-width="1" width="124" x="158" y="573"/>
<text font-family="Dialog" font-size="12" x="162" y="587">
height : Integer</text>
<text font-family="Dialog" font-size="12" x="162" y="603">
width : Integer</text>
<rect fill="#000000" height="1" stroke="#000000" stroke-width="1" width="124" x="158" y="613"/>
<text font-family="Dialog" font-size="12" x="162" y="627">
manipulate()</text>
<rect fill="#ffffff" height="72" stroke="#ffffff" stroke-width="1" width="130" x="158" y="774"/>
<rect fill="none" height="72" stroke="#000000" stroke-width="1" width="130" x="158" y="774"/>
<text font-family="Dialog" font-size="12" x="208" y="787">
Light</text>
<rect fill="#000000" height="1" stroke="#000000" stroke-width="1" width="130" x="158" y="797"/>
<text font-family="Dialog" font-size="12" x="162" y="811">
coefficient : Integer</text>
<rect fill="#000000" height="1" stroke="#000000" stroke-width="1" width="130" x="158" y="821"/>
<text font-family="Dialog" font-size="12" x="162" y="835">
manipulate()</text>
<rect fill="#ffffff" height="72" stroke="#ffffff" stroke-width="1" width="130" x="158" y="870"/>
<rect fill="none" height="72" stroke="#000000" stroke-width="1" width="130" x="158" y="870"/>
<text font-family="Dialog" font-size="12" x="196" y="883">
Contrast</text>
<rect fill="#000000" height="1" stroke="#000000" stroke-width="1" width="130" x="158" y="893"/>
<text font-family="Dialog" font-size="12" x="162" y="907">
coefficient : Integer</text>
<rect fill="#000000" height="1" stroke="#000000" stroke-width="1" width="130" x="158" y="917"/>
<text font-family="Dialog" font-size="12" x="162" y="931">
manipulate()</text>
<rect fill="#ffffff" height="88" stroke="#ffffff" stroke-width="1" width="122" x="158" y="958"/>
<rect fill="none" height="88" stroke="#000000" stroke-width="1" width="122" x="158" y="958"/>
<text font-family="Dialog" font-size="12" x="203" y="971">
Color</text>
<rect fill="#000000" height="1" stroke="#000000" stroke-width="1" width="122" x="158" y="981"/>
<text font-family="Dialog" font-size="12" x="162" y="995">
oldColor : Pixel</text>
<text font-family="Dialog" font-size="12" x="162" y="1011">
newColor : Pixel</text>
<rect fill="#000000" height="1" stroke="#000000" stroke-width="1" width="122" x="158" y="1021"/>
<text font-family="Dialog" font-size="12" x="162" y="1035">
manipulate()</text>
<polyline fill="none" points="158,366 110,366 110,277" stroke="#000000" stroke-width="1"/>
<polygon fill="#ffffff" points="110,277 117,289 103,289" stroke="#ffffff" stroke-width="1"/>
<polygon fill="none" points="110,277 117,289 103,289" stroke="#000000" stroke-width="1"/>
<polyline fill="none" points="158,478 110,478 110,277" stroke="#000000" stroke-width="1"/>
<polygon fill="#ffffff" points="110,277 117,289 103,289" stroke="#ffffff" stroke-width="1"/>
<polygon fill="none" points="110,277 117,289 103,289" stroke="#000000" stroke-width="1"/>
<polyline fill="none" points="158,702 110,702 110,277" stroke="#000000" stroke-width="1"/>
<polygon fill="#ffffff" points="110,277 117,289 103,289" stroke="#ffffff" stroke-width="1"/>
<polygon fill="none" points="110,277 117,289 103,289" stroke="#000000" stroke-width="1"/>
<rect fill="#ffffff" height="83" stroke="#ffffff" stroke-width="1" width="105" x="414" y="438"/>
<rect fill="none" height="83" stroke="#000000" stroke-width="1" width="105" x="414" y="438"/>
<text font-family="Dialog" font-size="12" x="426" y="470">
ChangeLayer</text>
<text font-family="Dialog" font-size="12" x="418" y="452">
&lt;&lt;interface&gt;&gt;</text>
<rect fill="#000000" height="1" stroke="#000000" stroke-width="1" width="105" x="414" y="480"/>
<text font-family="Dialog" font-size="12" x="418" y="494">
addLayer()</text>
<text font-family="Dialog" font-size="12" x="418" y="510">
removeLayer()</text>
<line fill="#000000" stroke="#000000" stroke-width="1" x1="598" x2="593" y1="477" y2="477"/>
<line fill="#000000" stroke="#000000" stroke-width="1" x1="588" x2="583" y1="477" y2="477"/>
<line fill="#000000" stroke="#000000" stroke-width="1" x1="578" x2="573" y1="477" y2="477"/>
<line fill="#000000" stroke="#000000" stroke-width="1" x1="568" x2="563" y1="477" y2="477"/>
<line fill="#000000" stroke="#000000" stroke-width="1" x1="558" x2="553" y1="477" y2="477"/>
<line fill="#000000" stroke="#000000" stroke-width="1" x1="548" x2="543" y1="477" y2="477"/>
<line fill="#000000" stroke="#000000" stroke-width="1" x1="538" x2="533" y1="477" y2="477"/>
<line fill="#000000" stroke="#000000" stroke-width="1" x1="528" x2="523" y1="477" y2="477"/>
<polygon fill="#ffffff" points="518,477 530,470 530,484" stroke="#ffffff" stroke-width="1"/>
<polygon fill="none" points="518,477 530,470 530,484" stroke="#000000" stroke-width="1"/>
<text font-family="Dialog" font-size="12" x="518" y="464">
&lt;&lt;realize&gt;&gt;</text>
<polyline fill="none" points="158,590 110,590 110,277" stroke="#000000" stroke-width="1"/>
<polygon fill="#ffffff" points="110,277 117,289 103,289" stroke="#ffffff" stroke-width="1"/>
<polygon fill="none" points="110,277 117,289 103,289" stroke="#000000" stroke-width="1"/>
<polyline fill="none" points="158,806 110,806 110,277" stroke="#000000" stroke-width="1"/>
<polygon fill="#ffffff" points="110,277 117,289 103,289" stroke="#ffffff" stroke-width="1"/>
<polygon fill="none" points="110,277 117,289 103,289" stroke="#000000" stroke-width="1"/>
<polyline fill="none" points="158,902 110,902 110,277" stroke="#000000" stroke-width="1"/>
<polygon fill="#ffffff" points="110,277 117,289 103,289" stroke="#ffffff" stroke-width="1"/>
<polygon fill="none" points="110,277 117,289 103,289" stroke="#000000" stroke-width="1"/>
<polyline fill="none" points="158,998 110,998 110,277" stroke="#000000" stroke-width="1"/>
<polygon fill="#ffffff" points="110,277 117,289 103,289" stroke="#ffffff" stroke-width="1"/>
<polygon fill="none" points="110,277 117,289 103,289" stroke="#000000" stroke-width="1"/>
<line fill="#000000" stroke="#000000" stroke-width="1" x1="277" x2="282" y1="366" y2="366"/>
<line fill="#000000" stroke="#000000" stroke-width="1" x1="287" x2="292" y1="366" y2="366"/>
<line fill="#000000" stroke="#000000" stroke-width="1" x1="297" x2="302" y1="366" y2="366"/>
<line fill="#000000" stroke="#000000" stroke-width="1" x1="307" x2="312" y1="366" y2="366"/>
<line fill="#000000" stroke="#000000" stroke-width="1" x1="317" x2="322" y1="366" y2="366"/>
<line fill="#000000" stroke="#000000" stroke-width="1" x1="327" x2="332" y1="366" y2="366"/>
<line fill="#000000" stroke="#000000" stroke-width="1" x1="337" x2="342" y1="366" y2="366"/>
<line fill="#000000" stroke="#000000" stroke-width="1" x1="347" x2="352" y1="366" y2="366"/>
<line fill="#000000" stroke="#000000" stroke-width="1" x1="357" x2="362" y1="366" y2="366"/>
<line fill="#000000" stroke="#000000" stroke-width="1" x1="367" x2="372" y1="366" y2="366"/>
<line fill="#000000" stroke="#000000" stroke-width="1" x1="377" x2="382" y1="366" y2="366"/>
<line fill="#000000" stroke="#000000" stroke-width="1" x1="387" x2="392" y1="366" y2="366"/>
<line fill="#000000" stroke="#000000" stroke-width="1" x1="397" x2="402" y1="366" y2="366"/>
<line fill="#000000" stroke="#000000" stroke-width="1" x1="407" x2="412" y1="366" y2="366"/>
<line fill="#000000" stroke="#000000" stroke-width="1" x1="417" x2="422" y1="366" y2="366"/>
<line fill="#000000" stroke="#000000" stroke-width="1" x1="427" x2="432" y1="366" y2="366"/>
<line fill="#000000" stroke="#000000" stroke-width="1" x1="437" x2="442" y1="366" y2="366"/>
<line fill="#000000" stroke="#000000" stroke-width="1" x1="447" x2="452" y1="366" y2="366"/>
<line fill="#000000" stroke="#000000" stroke-width="1" x1="457" x2="462" y1="366" y2="366"/>
<line fill="#000000" stroke="#000000" stroke-width="1" x1="467" x2="470" y1="366" y2="366"/>
<line fill="#000000" stroke="#000000" stroke-width="1" x1="470" x2="470" y1="366" y2="371"/>
<line fill="#000000" stroke="#000000" stroke-width="1" x1="470" x2="470" y1="376" y2="381"/>
<line fill="#000000" stroke="#000000" stroke-width="1" x1="470" x2="470" y1="386" y2="391"/>
<line fill="#000000" stroke="#000000" stroke-width="1" x1="470" x2="470" y1="396" y2="401"/>
<line fill="#000000" stroke="#000000" stroke-width="1" x1="470" x2="470" y1="406" y2="411"/>
<line fill="#000000" stroke="#000000" stroke-width="1" x1="470" x2="470" y1="416" y2="421"/>
<line fill="#000000" stroke="#000000" stroke-width="1" x1="470" x2="470" y1="426" y2="431"/>
<line fill="#000000" stroke="#000000" stroke-width="1" x1="470" x2="470" y1="436" y2="438"/>
<line fill="#000000" stroke="#000000" stroke-width="1" x1="463" x2="470" y1="426" y2="438"/>
<line fill="#000000" stroke="#000000" stroke-width="1" x1="477" x2="470" y1="426" y2="438"/>
<line fill="#000000" stroke="#000000" stroke-width="1" x1="270" x2="275" y1="470" y2="470"/>
<line fill="#000000" stroke="#000000" stroke-width="1" x1="280" x2="285" y1="470" y2="470"/>
<line fill="#000000" stroke="#000000" stroke-width="1" x1="290" x2="295" y1="470" y2="470"/>
<line fill="#000000" stroke="#000000" stroke-width="1" x1="300" x2="305" y1="470" y2="470"/>
<line fill="#000000" stroke="#000000" stroke-width="1" x1="310" x2="315" y1="470" y2="470"/>
<line fill="#000000" stroke="#000000" stroke-width="1" x1="320" x2="325" y1="470" y2="470"/>
<line fill="#000000" stroke="#000000" stroke-width="1" x1="330" x2="335" y1="470" y2="470"/>
<line fill="#000000" stroke="#000000" stroke-width="1" x1="340" x2="345" y1="470" y2="470"/>
<line fill="#000000" stroke="#000000" stroke-width="1" x1="350" x2="355" y1="470" y2="470"/>
<line fill="#000000" stroke="#000000" stroke-width="1" x1="360" x2="365" y1="470" y2="470"/>
<line fill="#000000" stroke="#000000" stroke-width="1" x1="370" x2="375" y1="470" y2="470"/>
<line fill="#000000" stroke="#000000" stroke-width="1" x1="380" x2="385" y1="470" y2="470"/>
<line fill="#000000" stroke="#000000" stroke-width="1" x1="390" x2="395" y1="470" y2="470"/>
<line fill="#000000" stroke="#000000" stroke-width="1" x1="400" x2="405" y1="470" y2="470"/>
<line fill="#000000" stroke="#000000" stroke-width="1" x1="410" x2="414" y1="470" y2="470"/>
<line fill="#000000" stroke="#000000" stroke-width="1" x1="402" x2="414" y1="477" y2="470"/>
<line fill="#000000" stroke="#000000" stroke-width="1" x1="402" x2="414" y1="463" y2="470"/>
<line fill="#000000" stroke="#000000" stroke-width="1" x1="270" x2="275" y1="710" y2="710"/>
<line fill="#000000" stroke="#000000" stroke-width="1" x1="280" x2="285" y1="710" y2="710"/>
<line fill="#000000" stroke="#000000" stroke-width="1" x1="290" x2="295" y1="710" y2="710"/>
<line fill="#000000" stroke="#000000" stroke-width="1" x1="300" x2="305" y1="710" y2="710"/>
<line fill="#000000" stroke="#000000" stroke-width="1" x1="310" x2="315" y1="710" y2="710"/>
<line fill="#000000" stroke="#000000" stroke-width="1" x1="320" x2="325" y1="710" y2="710"/>
<line fill="#000000" stroke="#000000" stroke-width="1" x1="330" x2="335" y1="710" y2="710"/>
<line fill="#000000" stroke="#000000" stroke-width="1" x1="340" x2="345" y1="710" y2="710"/>
<line fill="#000000" stroke="#000000" stroke-width="1" x1="350" x2="355" y1="710" y2="710"/>
<line fill="#000000" stroke="#000000" stroke-width="1" x1="360" x2="365" y1="710" y2="710"/>
<line fill="#000000" stroke="#000000" stroke-width="1" x1="370" x2="375" y1="710" y2="710"/>
<line fill="#000000" stroke="#000000" stroke-width="1" x1="380" x2="385" y1="710" y2="710"/>
<line fill="#000000" stroke="#000000" stroke-width="1" x1="390" x2="395" y1="710" y2="710"/>
<line fill="#000000" stroke="#000000" stroke-width="1" x1="400" x2="405" y1="710" y2="710"/>
<line fill="#000000" stroke="#000000" stroke-width="1" x1="410" x2="414" y1="710" y2="710"/>
<line fill="#000000" stroke="#000000" stroke-width="1" x1="402" x2="414" y1="717" y2="710"/>
<line fill="#000000" stroke="#000000" stroke-width="1" x1="402" x2="414" y1="703" y2="710"/>
<line fill="#000000" stroke="#000000" stroke-width="1" x1="281" x2="286" y1="598" y2="598"/>
<line fill="#000000" stroke="#000000" stroke-width="1" x1="291" x2="296" y1="598" y2="598"/>
<line fill="#000000" stroke="#000000" stroke-width="1" x1="301" x2="306" y1="598" y2="598"/>
<line fill="#000000" stroke="#000000" stroke-width="1" x1="311" x2="316" y1="598" y2="598"/>
<line fill="#000000" stroke="#000000" stroke-width="1" x1="321" x2="326" y1="598" y2="598"/>
<line fill="#000000" stroke="#000000" stroke-width="1" x1="331" x2="336" y1="598" y2="598"/>
<line fill="#000000" stroke="#000000" stroke-width="1" x1="341" x2="346" y1="598" y2="598"/>
<line fill="#000000" stroke="#000000" stroke-width="1" x1="351" x2="356" y1="598" y2="598"/>
<line fill="#000000" stroke="#000000" stroke-width="1" x1="361" x2="366" y1="598" y2="598"/>
<line fill="#000000" stroke="#000000" stroke-width="1" x1="371" x2="376" y1="598" y2="598"/>
<line fill="#000000" stroke="#000000" stroke-width="1" x1="381" x2="386" y1="598" y2="598"/>
<line fill="#000000" stroke="#000000" stroke-width="1" x1="391" x2="396" y1="598" y2="598"/>
<line fill="#000000" stroke="#000000" stroke-width="1" x1="401" x2="406" y1="598" y2="598"/>
<line fill="#000000" stroke="#000000" stroke-width="1" x1="411" x2="416" y1="598" y2="598"/>
<line fill="#000000" stroke="#000000" stroke-width="1" x1="421" x2="426" y1="598" y2="598"/>
<line fill="#000000" stroke="#000000" stroke-width="1" x1="431" x2="436" y1="598" y2="598"/>
<line fill="#000000" stroke="#000000" stroke-width="1" x1="441" x2="446" y1="598" y2="598"/>
<line fill="#000000" stroke="#000000" stroke-width="1" x1="451" x2="456" y1="598" y2="598"/>
<line fill="#000000" stroke="#000000" stroke-width="1" x1="461" x2="466" y1="598" y2="598"/>
<line fill="#000000" stroke="#000000" stroke-width="1" x1="470" x2="470" y1="598" y2="593"/>
<line fill="#000000" stroke="#000000" stroke-width="1" x1="470" x2="470" y1="588" y2="583"/>
<line fill="#000000" stroke="#000000" stroke-width="1" x1="470" x2="470" y1="578" y2="573"/>
<line fill="#000000" stroke="#000000" stroke-width="1" x1="470" x2="470" y1="568" y2="563"/>
<line fill="#000000" stroke="#000000" stroke-width="1" x1="470" x2="470" y1="558" y2="553"/>
<line fill="#000000" stroke="#000000" stroke-width="1" x1="470" x2="470" y1="548" y2="543"/>
<line fill="#000000" stroke="#000000" stroke-width="1" x1="470" x2="470" y1="538" y2="533"/>
<line fill="#000000" stroke="#000000" stroke-width="1" x1="470" x2="470" y1="528" y2="523"/>
<line fill="#000000" stroke="#000000" stroke-width="1" x1="477" x2="470" y1="532" y2="520"/>
<line fill="#000000" stroke="#000000" stroke-width="1" x1="463" x2="470" y1="532" y2="520"/>
<line fill="#000000" stroke="#000000" stroke-width="1" x1="287" x2="292" y1="814" y2="814"/>
<line fill="#000000" stroke="#000000" stroke-width="1" x1="297" x2="302" y1="814" y2="814"/>
<line fill="#000000" stroke="#000000" stroke-width="1" x1="307" x2="312" y1="814" y2="814"/>
<line fill="#000000" stroke="#000000" stroke-width="1" x1="317" x2="322" y1="814" y2="814"/>
<line fill="#000000" stroke="#000000" stroke-width="1" x1="327" x2="332" y1="814" y2="814"/>
<line fill="#000000" stroke="#000000" stroke-width="1" x1="337" x2="342" y1="814" y2="814"/>
<line fill="#000000" stroke="#000000" stroke-width="1" x1="347" x2="352" y1="814" y2="814"/>
<line fill="#000000" stroke="#000000" stroke-width="1" x1="357" x2="362" y1="814" y2="814"/>
<line fill="#000000" stroke="#000000" stroke-width="1" x1="367" x2="372" y1="814" y2="814"/>
<line fill="#000000" stroke="#000000" stroke-width="1" x1="377" x2="382" y1="814" y2="814"/>
<line fill="#000000" stroke="#000000" stroke-width="1" x1="387" x2="392" y1="814" y2="814"/>
<line fill="#000000" stroke="#000000" stroke-width="1" x1="397" x2="402" y1="814" y2="814"/>
<line fill="#000000" stroke="#000000" stroke-width="1" x1="407" x2="412" y1="814" y2="814"/>
<line fill="#000000" stroke="#000000" stroke-width="1" x1="417" x2="422" y1="814" y2="814"/>
<line fill="#000000" stroke="#000000" stroke-width="1" x1="427" x2="432" y1="814" y2="814"/>
<line fill="#000000" stroke="#000000" stroke-width="1" x1="437" x2="442" y1="814" y2="814"/>
<line fill="#000000" stroke="#000000" stroke-width="1" x1="447" x2="452" y1="814" y2="814"/>
<line fill="#000000" stroke="#000000" stroke-width="1" x1="457" x2="462" y1="814" y2="814"/>
<line fill="#000000" stroke="#000000" stroke-width="1" x1="467" x2="470" y1="814" y2="814"/>
<line fill="#000000" stroke="#000000" stroke-width="1" x1="470" x2="470" y1="814" y2="819"/>
<line fill="#000000" stroke="#000000" stroke-width="1" x1="470" x2="470" y1="824" y2="829"/>
<line fill="#000000" stroke="#000000" stroke-width="1" x1="470" x2="470" y1="834" y2="839"/>
<line fill="#000000" stroke="#000000" stroke-width="1" x1="470" x2="470" y1="844" y2="849"/>
<line fill="#000000" stroke="#000000" stroke-width="1" x1="463" x2="470" y1="842" y2="854"/>
<line fill="#000000" stroke="#000000" stroke-width="1" x1="477" x2="470" y1="842" y2="854"/>
<line fill="#000000" stroke="#000000" stroke-width="1" x1="287" x2="292" y1="902" y2="902"/>
<line fill="#000000" stroke="#000000" stroke-width="1" x1="297" x2="302" y1="902" y2="902"/>
<line fill="#000000" stroke="#000000" stroke-width="1" x1="307" x2="312" y1="902" y2="902"/>
<line fill="#000000" stroke="#000000" stroke-width="1" x1="317" x2="322" y1="902" y2="902"/>
<line fill="#000000" stroke="#000000" stroke-width="1" x1="327" x2="332" y1="902" y2="902"/>
<line fill="#000000" stroke="#000000" stroke-width="1" x1="337" x2="342" y1="902" y2="902"/>
<line fill="#000000" stroke="#000000" stroke-width="1" x1="347" x2="352" y1="902" y2="902"/>
<line fill="#000000" stroke="#000000" stroke-width="1" x1="357" x2="362" y1="902" y2="902"/>
<line fill="#000000" stroke="#000000" stroke-width="1" x1="367" x2="372" y1="902" y2="902"/>
<line fill="#000000" stroke="#000000" stroke-width="1" x1="377" x2="382" y1="902" y2="902"/>
<line fill="#000000" stroke="#000000" stroke-width="1" x1="387" x2="392" y1="902" y2="902"/>
<line fill="#000000" stroke="#000000" stroke-width="1" x1="397" x2="402" y1="902" y2="902"/>
<line fill="#000000" stroke="#000000" stroke-width="1" x1="394" x2="406" y1="909" y2="902"/>
<line fill="#000000" stroke="#000000" stroke-width="1" x1="394" x2="406" y1="895" y2="902"/>
<line fill="#000000" stroke="#000000" stroke-width="1" x1="279" x2="284" y1="998" y2="998"/>
<line fill="#000000" stroke="#000000" stroke-width="1" x1="289" x2="294" y1="998" y2="998"/>
<line fill="#000000" stroke="#000000" stroke-width="1" x1="299" x2="304" y1="998" y2="998"/>
<line fill="#000000" stroke="#000000" stroke-width="1" x1="309" x2="314" y1="998" y2="998"/>
<line fill="#000000" stroke="#000000" stroke-width="1" x1="319" x2="324" y1="998" y2="998"/>
<line fill="#000000" stroke="#000000" stroke-width="1" x1="329" x2="334" y1="998" y2="998"/>
<line fill="#000000" stroke="#000000" stroke-width="1" x1="339" x2="344" y1="998" y2="998"/>
<line fill="#000000" stroke="#000000" stroke-width="1" x1="349" x2="354" y1="998" y2="998"/>
<line fill="#000000" stroke="#000000" stroke-width="1" x1="359" x2="364" y1="998" y2="998"/>
<line fill="#000000" stroke="#000000" stroke-width="1" x1="369" x2="374" y1="998" y2="998"/>
<line fill="#000000" stroke="#000000" stroke-width="1" x1="379" x2="384" y1="998" y2="998"/>
<line fill="#000000" stroke="#000000" stroke-width="1" x1="389" x2="394" y1="998" y2="998"/>
<line fill="#000000" stroke="#000000" stroke-width="1" x1="399" x2="404" y1="998" y2="998"/>
<line fill="#000000" stroke="#000000" stroke-width="1" x1="409" x2="414" y1="998" y2="998"/>
<line fill="#000000" stroke="#000000" stroke-width="1" x1="419" x2="424" y1="998" y2="998"/>
<line fill="#000000" stroke="#000000" stroke-width="1" x1="429" x2="434" y1="998" y2="998"/>
<line fill="#000000" stroke="#000000" stroke-width="1" x1="439" x2="444" y1="998" y2="998"/>
<line fill="#000000" stroke="#000000" stroke-width="1" x1="449" x2="454" y1="998" y2="998"/>
<line fill="#000000" stroke="#000000" stroke-width="1" x1="459" x2="464" y1="998" y2="998"/>
<line fill="#000000" stroke="#000000" stroke-width="1" x1="469" x2="470" y1="998" y2="998"/>
<line fill="#000000" stroke="#000000" stroke-width="1" x1="470" x2="470" y1="998" y2="993"/>
<line fill="#000000" stroke="#000000" stroke-width="1" x1="470" x2="470" y1="988" y2="983"/>
<line fill="#000000" stroke="#000000" stroke-width="1" x1="470" x2="470" y1="978" y2="973"/>
<line fill="#000000" stroke="#000000" stroke-width="1" x1="470" x2="470" y1="968" y2="963"/>
<line fill="#000000" stroke="#000000" stroke-width="1" x1="470" x2="470" y1="958" y2="953"/>
<line fill="#000000" stroke="#000000" stroke-width="1" x1="470" x2="470" y1="948" y2="943"/>
<line fill="#000000" stroke="#000000" stroke-width="1" x1="470" x2="470" y1="938" y2="936"/>
<line fill="#000000" stroke="#000000" stroke-width="1" x1="477" x2="470" y1="948" y2="936"/>
<line fill="#000000" stroke="#000000" stroke-width="1" x1="463" x2="470" y1="948" y2="936"/>
<rect fill="#ffffff" height="72" stroke="#ffffff" stroke-width="1" width="113" x="886" y="214"/>
<rect fill="none" height="72" stroke="#000000" stroke-width="1" width="113" x="886" y="214"/>
<text font-family="Dialog" font-size="12" x="913" y="227">
ShowTool</text>
<rect fill="#000000" height="1" stroke="#000000" stroke-width="1" width="113" x="886" y="237"/>
<text font-family="Dialog" font-size="12" x="890" y="251">
pic : Picture</text>
<rect fill="#000000" height="1" stroke="#000000" stroke-width="1" width="113" x="886" y="261"/>
<text font-family="Dialog" font-size="12" x="890" y="275">
show()</text>
<polyline fill="none" points="726,254 886,254" stroke="#000000" stroke-width="1"/>
<text font-family="Dialog" font-size="12" x="737" y="249">
1</text>
<text font-family="Dialog" font-size="12" x="860" y="249">
0..*</text>
<polyline fill="none" points="950,285 950,478 775,478" stroke="#000000" stroke-width="1"/>
<text font-family="Dialog" font-size="12" x="915" y="407">
show</text>
<text font-family="Dialog" font-size="12" x="963" y="312">
1</text>
<text font-family="Dialog" font-size="12" x="786" y="473">
1</text>
<polyline fill="none" points="678,549 678,654" stroke="#000000" stroke-width="1"/>
<polygon fill="#000000" points="678,549 683,559 678,569 673,559" stroke="#000000" stroke-width="1"/>
<polygon fill="none" points="678,549 683,559 678,569 673,559" stroke="#000000" stroke-width="1"/>
<text font-family="Dialog" font-size="12" x="681" y="606">
consistOf</text>
<text font-family="Dialog" font-size="12" x="692" y="561">
1</text>
<text font-family="Dialog" font-size="12" x="684" y="647">
0..*</text>
<rect fill="#ffffff" height="85" stroke="#ffffff" stroke-width="1" width="113" x="622" y="70"/>
<rect fill="none" height="85" stroke="#000000" stroke-width="1" width="113" x="622" y="70"/>
<text font-family="Dialog" font-size="12" x="668" y="83">
GUI</text>
<rect fill="#000000" height="1" stroke="#000000" stroke-width="1" width="113" x="622" y="93"/>
<rect fill="#000000" height="1" stroke="#000000" stroke-width="1" width="113" x="622" y="114"/>
<text font-family="Dialog" font-size="12" x="626" y="128">
showGui()</text>
<text font-family="Dialog" font-size="12" x="626" y="144">
showDialog()</text>
<polyline fill="none" points="670,154 670,214" stroke="#000000" stroke-width="1"/>
<text font-family="Dialog" font-size="12" x="673" y="189">
show</text>
<text font-family="Dialog" font-size="12" x="683" y="181">
1</text>
<text font-family="Dialog" font-size="12" x="684" y="197">
1</text>
</svg>
